<?xml version="1.0" encoding="UTF-8"?>
<!DOCTYPE svg PUBLIC "-//W3C//DTD SVG 1.1//EN" "http://www.w3.org/Graphics/SVG/1.1/DTD/svg11.dtd">
<svg xmlns="http://www.w3.org/2000/svg" version="1.1" width="320px" height="320px" style="shape-rendering:geometricPrecision; text-rendering:geometricPrecision; image-rendering:optimizeQuality; fill-rule:evenodd; clip-rule:evenodd" xmlns:xlink="http://www.w3.org/1999/xlink">
<g><path style="opacity:0.075" fill="#020202" d="M 141.5,16.5 C 193.73,11.6246 237.563,28.2913 273,66.5C 304.432,106.913 314.432,152.246 303,202.5C 284.569,264.6 243.403,300.767 179.5,311C 117.029,317.32 68.1959,294.82 33,243.5C 11.3532,205.055 6.01985,164.389 17,121.5C 36.9425,60.7987 78.4425,25.7987 141.5,16.5 Z"/></g>
<g><path style="opacity:0.999" fill="#f4f5f5" d="M 266.5,70.5 C 266.414,71.4959 266.748,72.3292 267.5,73C 265.899,73.2734 264.399,73.7734 263,74.5C 261.467,74.0563 259.967,73.723 258.5,73.5C 257.702,73.9569 257.369,74.6236 257.5,75.5C 226.266,42.0226 187.6,27.5226 141.5,32C 114.096,36.1695 90.4292,47.6695 70.5,66.5C 68.0847,66.4453 65.5847,66.4453 63,66.5C 62.0546,66.0946 61.3879,65.428 61,64.5C 60.6667,64.8333 60.3333,65.1667 60,65.5C 59.805,64.1807 59.9717,62.8474 60.5,61.5C 98.7405,25.4354 143.74,13.2688 195.5,25C 224.08,32.7923 247.747,47.9589 266.5,70.5 Z"/></g>
<g><path style="opacity:1" fill="#fee4a4" d="M 257.5,75.5 C 267.283,87.398 275.283,100.398 281.5,114.5C 287.524,131.648 290.191,149.315 289.5,167.5C 285.54,213.436 264.206,248.769 225.5,273.5C 173.097,299.96 123.43,295.794 76.5,261C 71.6313,255.963 66.6313,251.13 61.5,246.5C 44.6492,226.125 34.3159,202.792 30.5,176.5C 28.5509,155.655 30.8842,135.322 37.5,115.5C 44.8813,96.7753 55.8813,80.442 70.5,66.5C 90.4292,47.6695 114.096,36.1695 141.5,32C 187.6,27.5226 226.266,42.0226 257.5,75.5 Z"/></g>
<g><path style="opacity:0.999" fill="#e3e8e8" d="M 60.5,61.5 C 59.9717,62.8474 59.805,64.1807 60,65.5C 60.3333,65.1667 60.6667,64.8333 61,64.5C 61.3879,65.428 62.0546,66.0946 63,66.5C 65.5847,66.4453 68.0847,66.4453 70.5,66.5C 55.8813,80.442 44.8813,96.7753 37.5,115.5C 37.189,114.522 36.5223,113.855 35.5,113.5C 33.5,113.833 31.5,114.167 29.5,114.5C 29.0798,112.674 29.0798,110.674 29.5,108.5C 36.2443,90.4306 46.5776,74.7639 60.5,61.5 Z"/></g>
<g><path style="opacity:0.999" fill="#e3e8e8" d="M 266.5,70.5 C 276.083,80.646 283.416,92.3127 288.5,105.5C 289.057,107.949 289.057,110.282 288.5,112.5C 286.271,113.577 283.937,114.244 281.5,114.5C 275.283,100.398 267.283,87.398 257.5,75.5C 257.369,74.6236 257.702,73.9569 258.5,73.5C 259.967,73.723 261.467,74.0563 263,74.5C 264.399,73.7734 265.899,73.2734 267.5,73C 266.748,72.3292 266.414,71.4959 266.5,70.5 Z"/></g>
<g><path style="opacity:1" fill="#d3dbdc" d="M 29.5,108.5 C 29.0798,110.674 29.0798,112.674 29.5,114.5C 31.5,114.167 33.5,113.833 35.5,113.5C 36.5223,113.855 37.189,114.522 37.5,115.5C 30.8842,135.322 28.5509,155.655 30.5,176.5C 29.8485,175.909 29.1818,175.243 28.5,174.5C 26.5,175.167 24.5,175.833 22.5,176.5C 21.1993,174.556 20.1993,172.556 19.5,170.5C 18.7197,155.659 19.8863,140.992 23,126.5C 24.8771,120.279 27.0438,114.279 29.5,108.5 Z"/></g>
<g><path style="opacity:1" fill="#d0d9d9" d="M 288.5,105.5 C 297.824,126.465 301.49,148.465 299.5,171.5C 298.691,173.292 298.191,175.292 298,177.5C 297.16,174.536 296.16,174.203 295,176.5C 293.301,175.594 291.467,175.261 289.5,175.5C 289.5,172.833 289.5,170.167 289.5,167.5C 290.191,149.315 287.524,131.648 281.5,114.5C 283.937,114.244 286.271,113.577 288.5,112.5C 289.057,110.282 289.057,107.949 288.5,105.5 Z"/></g>
<g><path style="opacity:1" fill="#b9a072" d="M 80.5,171.5 C 81.4902,177.645 81.8235,183.978 81.5,190.5C 79.8333,190.5 78.1667,190.5 76.5,190.5C 77.5676,189.566 78.901,189.232 80.5,189.5C 80.5,183.5 80.5,177.5 80.5,171.5 Z"/></g>
<g><path style="opacity:1" fill="#835037" d="M 76.5,190.5 C 78.1667,190.5 79.8333,190.5 81.5,190.5C 81.8235,183.978 81.4902,177.645 80.5,171.5C 69.294,164.775 64.4607,154.775 66,141.5C 68.6048,130.958 74.6048,122.958 84,117.5C 92.0239,87.14 110.857,66.64 140.5,56C 183.522,48.2672 216.022,63.1005 238,100.5C 245.379,117.906 247.379,135.906 244,154.5C 255.813,178.919 256.479,203.586 246,228.5C 238.742,240.749 228.242,248.916 214.5,253C 209.104,260.688 201.77,263.354 192.5,261C 189.268,259.77 186.601,257.77 184.5,255C 152.833,254.667 121.167,254.333 89.5,254C 83.3929,251.63 80.3929,247.13 80.5,240.5C 65.3238,228.157 61.3238,212.991 68.5,195C 70.8171,192.843 73.4838,191.343 76.5,190.5 Z"/></g>
<g><path style="opacity:1" fill="#f0bc5e" d="M 180.5,202.5 C 183.898,205.721 187.898,207.887 192.5,209C 189.938,211.733 187.271,214.233 184.5,216.5C 184.664,213.813 184.497,211.146 184,208.5C 182.579,206.595 181.412,204.595 180.5,202.5 Z"/></g>
<g><path style="opacity:1" fill="#b86e5f" d="M 80.5,194.5 C 81.8255,208.006 81.8255,221.672 80.5,235.5C 79.8933,235.376 79.56,235.043 79.5,234.5C 80.4956,221.344 80.8289,208.01 80.5,194.5 Z"/></g>
<g><path style="opacity:1" fill="#fba69a" d="M 179.5,195.5 C 184.036,198.52 189.036,200.686 194.5,202C 202.607,202.827 210.607,202.327 218.5,200.5C 219.109,203.878 217.776,205.878 214.5,206.5C 208.383,206.509 202.05,206.342 195.5,206C 188.55,204.709 183.217,201.209 179.5,195.5 Z"/></g>
<g><path style="opacity:1" fill="#fb9283" d="M 80.5,194.5 C 80.8289,208.01 80.4956,221.344 79.5,234.5C 72.7293,227.791 68.7293,219.624 67.5,210C 67.5653,203.532 70.232,198.532 75.5,195C 77.1341,194.506 78.8008,194.34 80.5,194.5 Z"/></g>
<g><path style="opacity:1" fill="#eda095" d="M 81.5,150.5 C 81.8288,156.206 81.4954,161.872 80.5,167.5C 75.0784,163.424 71.7451,158.09 70.5,151.5C 72.864,155.024 76.0306,157.69 80,159.5C 80.1805,156.305 80.6805,153.305 81.5,150.5 Z"/></g>
<g><path style="opacity:1" fill="#feda85" d="M 180.5,202.5 C 181.412,204.595 182.579,206.595 184,208.5C 184.497,211.146 184.664,213.813 184.5,216.5C 179.629,226.324 178.295,236.657 180.5,247.5C 179.732,246.737 179.232,245.737 179,244.5C 178.167,245.333 177.333,246.167 176.5,247C 147.833,247.667 119.167,247.667 90.5,247C 88.714,246.215 87.214,245.049 86,243.5C 85.5357,244.094 85.369,244.761 85.5,245.5C 84.336,214.003 84.1693,182.336 85,150.5C 86.1667,149.333 87.3333,148.167 88.5,147C 100.5,146.333 112.5,146.333 124.5,147C 128.833,151.333 133.167,155.667 137.5,160C 154.5,160.333 171.5,160.667 188.5,161C 190.421,162.241 190.754,163.741 189.5,165.5C 176.222,170.392 171.055,179.725 174,193.5C 175.643,196.961 177.81,199.961 180.5,202.5 Z"/></g>
<g><path style="opacity:1" fill="#ffefbd" d="M 115.5,195.5 C 129.171,195.333 142.837,195.5 156.5,196C 160.041,198.282 160.374,200.949 157.5,204C 143.167,204.667 128.833,204.667 114.5,204C 111.665,200.695 111.999,197.862 115.5,195.5 Z"/></g>
<g><path style="opacity:1" fill="#faa498" d="M 238.5,114.5 C 240.087,121.108 241.087,127.942 241.5,135C 240.096,141.775 239.596,148.609 240,155.5C 250.068,175.702 252.068,196.702 246,218.5C 241.179,231.652 232.513,241.319 220,247.5C 221.986,240.387 223.152,233.054 223.5,225.5C 234.176,218.837 240.343,209.17 242,196.5C 243.258,181.126 240.091,166.792 232.5,153.5C 237.963,141.079 239.963,128.079 238.5,114.5 Z"/></g>
<g><path style="opacity:1" fill="#fdbeb6" d="M 238.5,114.5 C 239.963,128.079 237.963,141.079 232.5,153.5C 240.091,166.792 243.258,181.126 242,196.5C 240.343,209.17 234.176,218.837 223.5,225.5C 221.843,218.874 218.177,213.541 212.5,209.5C 213.193,208.482 213.859,207.482 214.5,206.5C 217.776,205.878 219.109,203.878 218.5,200.5C 210.607,202.327 202.607,202.827 194.5,202C 189.036,200.686 184.036,198.52 179.5,195.5C 174.351,185.749 176.351,177.582 185.5,171C 192.154,167.838 199.154,166.004 206.5,165.5C 206.291,164.914 205.957,164.414 205.5,164C 201.789,163.825 198.122,163.325 194.5,162.5C 193.699,159.867 192.033,158.033 189.5,157C 172.5,156.667 155.5,156.333 138.5,156C 134.082,151.243 129.415,146.91 124.5,143C 117.508,142.5 110.508,142.334 103.5,142.5C 108.294,133.196 105.294,127.529 94.5,125.5C 83.6176,127.979 81.6176,133.645 88.5,142.5C 84.7858,143.91 82.4525,146.577 81.5,150.5C 80.6805,153.305 80.1805,156.305 80,159.5C 76.0306,157.69 72.864,155.024 70.5,151.5C 69.1311,137.004 74.9644,126.338 88,119.5C 95.2439,87.5879 114.744,67.4212 146.5,59C 177.883,54.541 204.049,64.041 225,87.5C 231.098,95.6958 235.598,104.696 238.5,114.5 Z"/></g>
<g><path style="opacity:1" fill="#84513e" d="M 135.5,134.5 C 137.934,136.749 140.601,138.916 143.5,141C 147.167,141.667 150.833,141.667 154.5,141C 156.167,140 157.5,138.667 158.5,137C 159.483,136.409 160.15,136.743 160.5,138C 159.513,140.321 157.846,141.987 155.5,143C 151.167,143.667 146.833,143.667 142.5,143C 138.078,141.756 135.744,138.923 135.5,134.5 Z"/></g>
<g><path style="opacity:1" fill="#fe9889" d="M 199.5,140.5 C 207.157,138.691 212.99,141.024 217,147.5C 217.703,154.478 214.536,158.645 207.5,160C 199.148,162.178 193.481,159.345 190.5,151.5C 191.723,146.286 194.723,142.619 199.5,140.5 Z"/></g>
<g><path style="opacity:1" fill="#fd9889" d="M 103.5,142.5 C 98.5,142.5 93.5,142.5 88.5,142.5C 81.6176,133.645 83.6176,127.979 94.5,125.5C 105.294,127.529 108.294,133.196 103.5,142.5 Z"/></g>
<g><path style="opacity:1" fill="#ebe7e5" d="M 199.5,122.5 C 200.5,122.5 201.5,122.5 202.5,122.5C 202.5,124.833 202.5,127.167 202.5,129.5C 202.336,132.817 201.336,135.817 199.5,138.5C 197.045,141.234 194.045,143.234 190.5,144.5C 189.893,144.376 189.56,144.043 189.5,143.5C 196.821,138.521 200.154,131.521 199.5,122.5 Z"/></g>
<g><path style="opacity:1" fill="#f0ecea" d="M 105.5,113.5 C 106.167,117.5 106.833,121.5 107.5,125.5C 108.744,128.982 110.744,131.982 113.5,134.5C 113.103,135.525 112.437,135.692 111.5,135C 109.341,133.941 107.674,132.441 106.5,130.5C 104.37,124.831 104.036,119.164 105.5,113.5 Z"/></g>
<g><path style="opacity:1" fill="#72422b" d="M 199.5,138.5 C 201.336,135.817 202.336,132.817 202.5,129.5C 204.335,118.666 200.335,110.499 190.5,105C 183.914,103.379 178.248,104.879 173.5,109.5C 173.833,109.833 174.167,110.167 174.5,110.5C 181.533,105.138 188.367,105.471 195,111.5C 197.185,114.887 198.685,118.554 199.5,122.5C 200.154,131.521 196.821,138.521 189.5,143.5C 178.894,146.809 171.394,143.475 167,133.5C 165.163,122.013 168.329,112.179 176.5,104C 189.161,98.2262 198.661,101.726 205,114.5C 208.305,123.831 206.472,131.831 199.5,138.5 Z"/></g>
<g><path style="opacity:1" fill="#a0633c" d="M 176.5,134.5 C 176.5,135.833 176.5,137.167 176.5,138.5C 177.833,138.5 179.167,138.5 180.5,138.5C 182.341,137.327 184.174,137.327 186,138.5C 189.989,135.945 190.489,136.778 187.5,141C 179.989,145.079 175.322,142.912 173.5,134.5C 174.5,134.5 175.5,134.5 176.5,134.5 Z"/></g>
<g><path style="opacity:1" fill="#ebdc96" d="M 176.5,134.5 C 179.5,134.167 180.833,135.5 180.5,138.5C 179.167,138.5 177.833,138.5 176.5,138.5C 176.5,137.167 176.5,135.833 176.5,134.5 Z"/></g>
<g><path style="opacity:1" fill="#e9c26c" d="M 186.5,125.5 C 188.208,127.718 190.208,129.884 192.5,132C 189.794,132.601 187.794,134.101 186.5,136.5C 185.707,133.874 184.04,132.04 181.5,131C 184.079,129.924 185.746,128.091 186.5,125.5 Z"/></g>
<g><path style="opacity:1" fill="#edebe9" d="M 172.5,123.5 C 173.833,123.5 175.167,123.5 176.5,123.5C 176.5,124.833 176.5,126.167 176.5,127.5C 175.167,127.5 173.833,127.5 172.5,127.5C 172.5,126.167 172.5,124.833 172.5,123.5 Z"/></g>
<g><path style="opacity:1" fill="#e8c26b" d="M 191.5,115.5 C 195.473,118.967 195.307,122.3 191,125.5C 189.779,124.226 188.946,122.726 188.5,121C 189.741,119.269 190.741,117.436 191.5,115.5 Z"/></g>
<g><path style="opacity:1" fill="#d2c3cc" d="M 202.5,129.5 C 202.5,127.167 202.5,124.833 202.5,122.5C 201.5,122.5 200.5,122.5 199.5,122.5C 198.685,118.554 197.185,114.887 195,111.5C 188.367,105.471 181.533,105.138 174.5,110.5C 174.167,110.167 173.833,109.833 173.5,109.5C 178.248,104.879 183.914,103.379 190.5,105C 200.335,110.499 204.335,118.666 202.5,129.5 Z"/></g>
<g><path style="opacity:1" fill="#f4f3f1" d="M 178.5,110.5 C 184.997,110.18 187.164,113.18 185,119.5C 182,123.5 179,123.5 176,119.5C 174.927,115.9 175.76,112.9 178.5,110.5 Z"/></g>
<g><path style="opacity:1" fill="#72422a" d="M 113.5,134.5 C 110.744,131.982 108.744,128.982 107.5,125.5C 105.415,114.067 109.415,105.734 119.5,100.5C 123.584,100.043 127.417,100.71 131,102.5C 131.124,100.259 129.958,98.9261 127.5,98.5C 118.924,96.0365 112.424,98.7031 108,106.5C 106.589,108.65 105.755,110.984 105.5,113.5C 104.036,119.164 104.37,124.831 106.5,130.5C 103.383,126.66 101.716,122.16 101.5,117C 102.247,104.316 108.747,96.4827 121,93.5C 128.77,94.0306 133.436,98.0306 135,105.5C 136.896,116.034 134.729,125.534 128.5,134C 123.42,138.203 118.42,138.369 113.5,134.5 Z"/></g>
<g><path style="opacity:1" fill="#9c613a" d="M 113.5,126.5 C 115.833,126.5 118.167,126.5 120.5,126.5C 120.5,127.833 120.5,129.167 120.5,130.5C 122.46,131.138 124.293,131.138 126,130.5C 125.209,135.118 122.376,136.618 117.5,135C 114.989,132.674 113.656,129.841 113.5,126.5 Z"/></g>
<g><path style="opacity:1" fill="#e9d997" d="M 115.5,127.5 C 118.166,127.066 119.333,128.066 119,130.5C 116.342,131.694 115.176,130.694 115.5,127.5 Z"/></g>
<g><path style="opacity:1" fill="#e7c16c" d="M 124.5,116.5 C 125.89,119.251 127.89,121.751 130.5,124C 127.39,124.609 125.39,126.443 124.5,129.5C 123.565,126.898 121.898,124.898 119.5,123.5C 120.655,122.05 122.155,121.05 124,120.5C 124.49,119.207 124.657,117.873 124.5,116.5 Z"/></g>
<g><path style="opacity:1" fill="#ddd8d6" d="M 113.5,116.5 C 114.833,116.5 116.167,116.5 117.5,116.5C 117.884,118.665 117.217,120.332 115.5,121.5C 113.783,120.332 113.116,118.665 113.5,116.5 Z"/></g>
<g><path style="opacity:1" fill="#debb6a" d="M 128.5,109.5 C 132.951,111.367 133.284,113.7 129.5,116.5C 128.5,115.5 127.5,114.5 126.5,113.5C 127.853,112.476 128.52,111.143 128.5,109.5 Z"/></g>
<g><path style="opacity:1" fill="#d8cbd3" d="M 127.5,98.5 C 124.833,99.1667 122.167,99.8333 119.5,100.5C 109.415,105.734 105.415,114.067 107.5,125.5C 106.833,121.5 106.167,117.5 105.5,113.5C 105.755,110.984 106.589,108.65 108,106.5C 112.424,98.7031 118.924,96.0365 127.5,98.5 Z"/></g>
<g><path style="opacity:1" fill="#efeeec" d="M 119.5,103.5 C 126.968,104.674 128.301,108.174 123.5,114C 116.923,115.591 114.756,113.091 117,106.5C 118.045,105.627 118.878,104.627 119.5,103.5 Z"/></g>
<g><path style="opacity:1" fill="#9e8b8a" d="M 127.5,98.5 C 129.958,98.9261 131.124,100.259 131,102.5C 127.417,100.71 123.584,100.043 119.5,100.5C 122.167,99.8333 124.833,99.1667 127.5,98.5 Z"/></g>
<g><path style="opacity:1" fill="#84513c" d="M 186.5,86.5 C 192.442,85.1085 196.776,87.1085 199.5,92.5C 197.14,93.1721 195.14,92.3388 193.5,90C 190.774,89.8184 188.107,89.3184 185.5,88.5C 185.863,87.8165 186.196,87.1499 186.5,86.5 Z"/></g>
<g><path style="opacity:1" fill="#834f39" d="M 126.5,78.5 C 129.314,78.4027 131.314,79.5693 132.5,82C 132.167,82.5 131.833,83 131.5,83.5C 128.344,82.1288 125.344,82.4621 122.5,84.5C 121.417,83.635 121.251,82.635 122,81.5C 123.652,80.6006 125.152,79.6006 126.5,78.5 Z"/></g>
<g><path style="opacity:1" fill="#fd9182" d="M 199.5,210.5 C 211.989,210.655 218.656,216.988 219.5,229.5C 218.848,239.643 214.848,248.143 207.5,255C 197.692,260.104 190.192,257.938 185,248.5C 179.933,234.163 183.099,221.997 194.5,212C 196.382,211.802 198.048,211.302 199.5,210.5 Z"/></g>
<g><path style="opacity:1" fill="#c5caca" d="M 19.5,170.5 C 20.1993,172.556 21.1993,174.556 22.5,176.5C 24.5,175.833 26.5,175.167 28.5,174.5C 29.1818,175.243 29.8485,175.909 30.5,176.5C 34.3159,202.792 44.6492,226.125 61.5,246.5C 60.5272,247.791 59.5272,247.791 58.5,246.5C 57.5224,246.977 56.6891,247.643 56,248.5C 55.6667,247.833 55.3333,247.167 55,246.5C 52.9749,247.26 51.1415,247.594 49.5,247.5C 30.9486,225.362 20.9486,199.695 19.5,170.5 Z"/></g>
<g><path style="opacity:1" fill="#fdc560" d="M 180.5,247.5 C 181.404,248.209 181.737,249.209 181.5,250.5C 150.832,250.667 120.165,250.5 89.5,250C 87.249,249.252 85.9156,247.752 85.5,245.5C 85.369,244.761 85.5357,244.094 86,243.5C 87.214,245.049 88.714,246.215 90.5,247C 119.167,247.667 147.833,247.667 176.5,247C 177.333,246.167 178.167,245.333 179,244.5C 179.232,245.737 179.732,246.737 180.5,247.5 Z"/></g>
<g><path style="opacity:1" fill="#c3c7c7" d="M 289.5,167.5 C 289.5,170.167 289.5,172.833 289.5,175.5C 291.467,175.261 293.301,175.594 295,176.5C 296.16,174.203 297.16,174.536 298,177.5C 298.191,175.292 298.691,173.292 299.5,171.5C 295.929,213.988 277.263,247.988 243.5,273.5C 237.765,273.01 231.765,273.01 225.5,273.5C 264.206,248.769 285.54,213.436 289.5,167.5 Z"/></g>
<g><path style="opacity:1" fill="#bdbebd" d="M 61.5,246.5 C 66.6313,251.13 71.6313,255.963 76.5,261C 123.43,295.794 173.097,299.96 225.5,273.5C 231.765,273.01 237.765,273.01 243.5,273.5C 213.374,295.976 179.374,305.143 141.5,301C 106.752,295.878 77.5856,280.378 54,254.5C 52.2502,252.266 50.7502,249.932 49.5,247.5C 51.1415,247.594 52.9749,247.26 55,246.5C 55.3333,247.167 55.6667,247.833 56,248.5C 56.6891,247.643 57.5224,246.977 58.5,246.5C 59.5272,247.791 60.5272,247.791 61.5,246.5 Z"/></g>
</svg>
