<?xml version="1.0" encoding="UTF-8"?>
<!DOCTYPE svg PUBLIC "-//W3C//DTD SVG 1.1//EN" "http://www.w3.org/Graphics/SVG/1.1/DTD/svg11.dtd">
<svg xmlns="http://www.w3.org/2000/svg" version="1.1" width="320px" height="320px" style="shape-rendering:geometricPrecision; text-rendering:geometricPrecision; image-rendering:optimizeQuality; fill-rule:evenodd; clip-rule:evenodd" xmlns:xlink="http://www.w3.org/1999/xlink">
<g><path style="opacity:0.075" fill="#020202" d="M 141.5,16.5 C 193.73,11.6246 237.563,28.2913 273,66.5C 304.432,106.913 314.432,152.246 303,202.5C 284.569,264.6 243.403,300.767 179.5,311C 117.029,317.32 68.1959,294.82 33,243.5C 11.3532,205.055 6.01985,164.389 17,121.5C 36.9425,60.7987 78.4425,25.7987 141.5,16.5 Z"/></g>
<g><path style="opacity:0.999" fill="#f3f4f5" d="M 280.5,89.5 C 280.649,90.552 280.483,91.552 280,92.5C 276.623,91.633 273.123,91.2997 269.5,91.5C 238.743,47.038 196.077,27.2047 141.5,32C 113.202,36.5181 88.8687,48.6847 68.5,68.5C 67.8953,66.9743 66.7286,65.9743 65,65.5C 60.7487,66.9776 59.2487,65.6442 60.5,61.5C 102.172,22.7911 150.506,11.6245 205.5,28C 237.922,39.6018 262.922,60.1018 280.5,89.5 Z"/></g>
<g><path style="opacity:1" fill="#dcb8fd" d="M 269.5,91.5 C 284.133,115.03 290.8,140.697 289.5,168.5C 287.209,197.365 276.876,223.032 258.5,245.5C 220.446,285.686 174.446,298.853 120.5,285C 98.0033,277.26 78.6699,264.76 62.5,247.5C 44.7962,226.748 34.1295,202.748 30.5,175.5C 28.4766,154.978 30.8099,134.978 37.5,115.5C 44.579,97.672 54.9124,82.0054 68.5,68.5C 88.8687,48.6847 113.202,36.5181 141.5,32C 196.077,27.2047 238.743,47.038 269.5,91.5 Z"/></g>
<g><path style="opacity:1" fill="#884d3f" d="M 185.5,255.5 C 186.609,255.443 187.609,255.11 188.5,254.5C 199.771,260.469 208.604,257.802 215,246.5C 218.571,239.554 219.904,232.221 219,224.5C 216.957,217.292 212.457,212.626 205.5,210.5C 207.262,210.357 208.929,210.691 210.5,211.5C 211.666,209.833 211.666,208.166 210.5,206.5C 211.833,206.5 213.167,206.5 214.5,206.5C 214.047,207.458 213.381,208.292 212.5,209C 218.076,213.344 221.743,218.844 223.5,225.5C 223.639,232.307 222.305,238.807 219.5,245C 219.833,245.5 220.167,246 220.5,246.5C 235.116,239.615 244.283,228.282 248,212.5C 251.471,192.595 248.804,173.595 240,155.5C 239.801,148.34 239.968,141.173 240.5,134C 240.577,127.608 239.911,121.441 238.5,115.5C 233.152,94.6483 221.152,78.815 202.5,68C 176.064,55.3978 149.73,55.3978 123.5,68C 104.296,80.5482 92.1297,98.0482 87,120.5C 74.1997,127.091 68.6997,137.425 70.5,151.5C 70.3253,153.621 70.6586,155.621 71.5,157.5C 69.9519,157.821 69.2852,158.821 69.5,160.5C 62.159,142.237 66.9924,127.903 84,117.5C 89.4241,94.3984 102.257,76.565 122.5,64C 164.945,44.71 201.111,52.8766 231,88.5C 243.372,107.348 247.538,128.015 243.5,150.5C 245.994,157.794 248.494,165.128 251,172.5C 257.103,195.965 253.437,217.631 240,237.5C 233.442,245.03 225.275,249.863 215.5,252C 209.691,260.562 201.691,263.562 191.5,261C 189.237,259.383 187.237,257.55 185.5,255.5 Z"/></g>
<g><path style="opacity:0.999" fill="#e3e7e9" d="M 60.5,61.5 C 59.2487,65.6442 60.7487,66.9776 65,65.5C 66.7286,65.9743 67.8953,66.9743 68.5,68.5C 54.9124,82.0054 44.579,97.672 37.5,115.5C 37.189,114.522 36.5223,113.855 35.5,113.5C 33.5,113.833 31.5,114.167 29.5,114.5C 29.0798,112.674 29.0798,110.674 29.5,108.5C 36.2443,90.4306 46.5776,74.7639 60.5,61.5 Z"/></g>
<g><path style="opacity:1" fill="#d5ddde" d="M 280.5,89.5 C 295.736,114.665 302.069,141.998 299.5,171.5C 298.691,173.292 298.191,175.292 298,177.5C 297.16,174.536 296.16,174.203 295,176.5C 293.301,175.594 291.467,175.261 289.5,175.5C 289.5,173.167 289.5,170.833 289.5,168.5C 290.8,140.697 284.133,115.03 269.5,91.5C 273.123,91.2997 276.623,91.633 280,92.5C 280.483,91.552 280.649,90.552 280.5,89.5 Z"/></g>
<g><path style="opacity:1" fill="#fa9fa7" d="M 238.5,115.5 C 239.911,121.441 240.577,127.608 240.5,134C 239.968,141.173 239.801,148.34 240,155.5C 248.804,173.595 251.471,192.595 248,212.5C 244.283,228.282 235.116,239.615 220.5,246.5C 220.167,246 219.833,245.5 219.5,245C 222.305,238.807 223.639,232.307 223.5,225.5C 233.143,218.662 238.976,209.329 241,197.5C 243.239,181.801 240.406,167.134 232.5,153.5C 237.937,141.417 239.937,128.75 238.5,115.5 Z"/></g>
<g><path style="opacity:1" fill="#d3dbdc" d="M 29.5,108.5 C 29.0798,110.674 29.0798,112.674 29.5,114.5C 31.5,114.167 33.5,113.833 35.5,113.5C 36.5223,113.855 37.189,114.522 37.5,115.5C 30.8099,134.978 28.4766,154.978 30.5,175.5C 27.8607,174.808 25.1941,175.141 22.5,176.5C 21.1993,174.556 20.1993,172.556 19.5,170.5C 18.7197,155.659 19.8863,140.992 23,126.5C 24.8771,120.279 27.0438,114.279 29.5,108.5 Z"/></g>
<g><path style="opacity:1" fill="#ec99a2" d="M 81.5,150.5 C 81.8288,156.206 81.4954,161.872 80.5,167.5C 76.7657,164.769 73.7657,161.436 71.5,157.5C 70.6586,155.621 70.3253,153.621 70.5,151.5C 73.1397,154.971 76.3064,157.971 80,160.5C 80.1787,156.975 80.6787,153.641 81.5,150.5 Z"/></g>
<g><path style="opacity:1" fill="#ac88a6" d="M 80.5,171.5 C 81.4902,177.645 81.8235,183.978 81.5,190.5C 79.5,190.5 77.5,190.5 75.5,190.5C 76.9187,189.549 78.5853,189.216 80.5,189.5C 80.5,183.5 80.5,177.5 80.5,171.5 Z"/></g>
<g><path style="opacity:1" fill="#fcbabf" d="M 238.5,115.5 C 239.937,128.75 237.937,141.417 232.5,153.5C 240.406,167.134 243.239,181.801 241,197.5C 238.976,209.329 233.143,218.662 223.5,225.5C 221.743,218.844 218.076,213.344 212.5,209C 213.381,208.292 214.047,207.458 214.5,206.5C 217.776,205.878 219.109,203.878 218.5,200.5C 210.607,202.327 202.607,202.827 194.5,202C 189.215,200.354 184.215,198.187 179.5,195.5C 174.366,185.711 176.366,177.544 185.5,171C 191.818,167.92 198.485,166.42 205.5,166.5C 205.5,165.5 205.5,164.5 205.5,163.5C 201.774,163.823 198.107,163.489 194.5,162.5C 193.573,159.53 191.573,157.697 188.5,157C 171.833,156.667 155.167,156.333 138.5,156C 134.108,151.271 129.441,146.938 124.5,143C 113.172,142.5 101.838,142.333 90.5,142.5C 95.7793,142.107 100.946,141.107 106,139.5C 106.549,131.526 102.716,126.859 94.5,125.5C 83.6176,127.979 81.6176,133.645 88.5,142.5C 84.7858,143.91 82.4525,146.577 81.5,150.5C 80.6787,153.641 80.1787,156.975 80,160.5C 76.3064,157.971 73.1397,154.971 70.5,151.5C 68.6997,137.425 74.1997,127.091 87,120.5C 92.1297,98.0482 104.296,80.5482 123.5,68C 149.73,55.3978 176.064,55.3978 202.5,68C 221.152,78.815 233.152,94.6483 238.5,115.5 Z"/></g>
<g><path style="opacity:1" fill="#854c3d" d="M 135.5,134.5 C 137.934,136.749 140.601,138.916 143.5,141C 147.167,141.667 150.833,141.667 154.5,141C 156.167,140 157.5,138.667 158.5,137C 159.483,136.409 160.15,136.743 160.5,138C 159.513,140.321 157.846,141.987 155.5,143C 151.167,143.667 146.833,143.667 142.5,143C 138.078,141.756 135.744,138.923 135.5,134.5 Z"/></g>
<g><path style="opacity:1" fill="#fd9a99" d="M 200.5,140.5 C 209.269,138.543 214.935,141.709 217.5,150C 217.205,152.923 215.871,155.257 213.5,157C 206.094,161.67 198.927,161.504 192,156.5C 189.745,151.774 190.578,147.607 194.5,144C 196.432,142.541 198.432,141.375 200.5,140.5 Z"/></g>
<g><path style="opacity:1" fill="#e2dcde" d="M 127.5,98.5 C 124.833,99.1667 122.167,99.8333 119.5,100.5C 107.328,108.513 104.495,119.18 111,132.5C 111.708,133.381 112.542,134.047 113.5,134.5C 113.103,135.525 112.437,135.692 111.5,135C 109.341,133.941 107.674,132.441 106.5,130.5C 101.83,116.705 105.497,105.871 117.5,98C 120.888,97.3412 124.221,97.5078 127.5,98.5 Z"/></g>
<g><path style="opacity:1" fill="#fd9b9a" d="M 90.5,142.5 C 89.8333,142.5 89.1667,142.5 88.5,142.5C 81.6176,133.645 83.6176,127.979 94.5,125.5C 102.716,126.859 106.549,131.526 106,139.5C 100.946,141.107 95.7793,142.107 90.5,142.5 Z"/></g>
<g><path style="opacity:1" fill="#7c402a" d="M 199.5,138.5 C 206.797,124.559 203.797,113.392 190.5,105C 184.345,102.824 178.845,103.991 174,108.5C 173.312,109.332 173.479,109.998 174.5,110.5C 186.012,103.995 194.178,106.995 199,119.5C 201.015,129.633 197.848,137.633 189.5,143.5C 178.894,146.809 171.394,143.475 167,133.5C 164.759,121.89 167.926,112.056 176.5,104C 190.732,98.1909 200.565,102.691 206,117.5C 208.232,126.001 206.066,133.001 199.5,138.5 Z"/></g>
<g><path style="opacity:1" fill="#b3643b" d="M 176.5,134.5 C 176.116,136.665 176.783,138.332 178.5,139.5C 180.111,138.68 180.778,137.346 180.5,135.5C 181.976,137.432 183.643,137.765 185.5,136.5C 186.609,136.443 187.609,136.11 188.5,135.5C 189.058,140.613 186.725,143.279 181.5,143.5C 177.411,142.97 174.744,140.804 173.5,137C 173.748,135.251 174.748,134.418 176.5,134.5 Z"/></g>
<g><path style="opacity:1" fill="#f0d185" d="M 176.5,134.5 C 178.099,134.232 179.432,134.566 180.5,135.5C 180.778,137.346 180.111,138.68 178.5,139.5C 176.783,138.332 176.116,136.665 176.5,134.5 Z"/></g>
<g><path style="opacity:1" fill="#e5b860" d="M 188.5,135.5 C 187.609,136.11 186.609,136.443 185.5,136.5C 185.649,135.448 185.483,134.448 185,133.5C 183.513,132.845 182.347,131.845 181.5,130.5C 184.337,129.669 186.504,128.002 188,125.5C 188.739,128.573 190.572,130.74 193.5,132C 191.119,132.223 189.453,133.39 188.5,135.5 Z"/></g>
<g><path style="opacity:1" fill="#efeded" d="M 172.5,123.5 C 173.833,123.5 175.167,123.5 176.5,123.5C 176.5,124.833 176.5,126.167 176.5,127.5C 175.167,127.5 173.833,127.5 172.5,127.5C 172.5,126.167 172.5,124.833 172.5,123.5 Z"/></g>
<g><path style="opacity:1" fill="#e8bd64" d="M 190.5,117.5 C 192.134,118.207 193.468,119.373 194.5,121C 193,121.833 191.833,123 191,124.5C 190.5,122.667 189.333,121.5 187.5,121C 188.71,119.961 189.71,118.794 190.5,117.5 Z"/></g>
<g><path style="opacity:1" fill="#7a402b" d="M 113.5,134.5 C 112.542,134.047 111.708,133.381 111,132.5C 104.495,119.18 107.328,108.513 119.5,100.5C 123.584,100.043 127.417,100.71 131,102.5C 131.124,100.259 129.958,98.9261 127.5,98.5C 124.221,97.5078 120.888,97.3412 117.5,98C 105.497,105.871 101.83,116.705 106.5,130.5C 103.383,126.66 101.716,122.16 101.5,117C 102.317,109.038 105.65,102.371 111.5,97C 122.603,90.9729 130.436,93.8063 135,105.5C 137.131,116.079 134.965,125.579 128.5,134C 123.488,138.255 118.488,138.421 113.5,134.5 Z"/></g>
<g><path style="opacity:1" fill="#995230" d="M 117.5,120.5 C 118.833,120.833 120.167,121.167 121.5,121.5C 121.389,122.117 121.056,122.617 120.5,123C 122.378,124.543 123.878,126.376 125,128.5C 125.66,126.676 126.827,125.343 128.5,124.5C 126.907,136.496 121.74,138.496 113,130.5C 111.666,126.334 112.833,123.334 116.5,121.5C 116.5,120.833 116.833,120.5 117.5,120.5 Z"/></g>
<g><path style="opacity:1" fill="#f0d389" d="M 115.5,127.5 C 118.5,127.167 119.833,128.5 119.5,131.5C 116.5,131.833 115.167,130.5 115.5,127.5 Z"/></g>
<g><path style="opacity:1" fill="#eabe64" d="M 128.5,124.5 C 126.827,125.343 125.66,126.676 125,128.5C 123.878,126.376 122.378,124.543 120.5,123C 121.056,122.617 121.389,122.117 121.5,121.5C 123.384,121.288 124.717,120.288 125.5,118.5C 126.982,120.483 128.649,122.316 130.5,124C 129.906,124.464 129.239,124.631 128.5,124.5 Z"/></g>
<g><path style="opacity:1" fill="#dbd4d3" d="M 117.5,120.5 C 116.833,120.5 116.5,120.833 116.5,121.5C 113.32,121.824 112.153,120.49 113,117.5C 116.15,115.839 117.65,116.839 117.5,120.5 Z"/></g>
<g><path style="opacity:1" fill="#cda85e" d="M 129.5,110.5 C 131.984,111.964 131.984,113.631 129.5,115.5C 127.016,113.631 127.016,111.964 129.5,110.5 Z"/></g>
<g><path style="opacity:1" fill="#dbd4d6" d="M 199.5,138.5 C 197.045,141.234 194.045,143.234 190.5,144.5C 189.893,144.376 189.56,144.043 189.5,143.5C 197.848,137.633 201.015,129.633 199,119.5C 194.178,106.995 186.012,103.995 174.5,110.5C 173.479,109.998 173.312,109.332 174,108.5C 178.845,103.991 184.345,102.824 190.5,105C 203.797,113.392 206.797,124.559 199.5,138.5 Z"/></g>
<g><path style="opacity:1" fill="#f2f0f0" d="M 178.5,110.5 C 184.665,109.829 187.165,112.496 186,118.5C 183.078,123.233 179.745,123.566 176,119.5C 174.927,115.9 175.76,112.9 178.5,110.5 Z"/></g>
<g><path style="opacity:1" fill="#efeeed" d="M 120.5,103.5 C 126.454,104.695 127.954,108.028 125,113.5C 118.479,116.995 115.813,114.995 117,107.5C 118.376,106.295 119.542,104.962 120.5,103.5 Z"/></g>
<g><path style="opacity:1" fill="#a18d8a" d="M 127.5,98.5 C 129.958,98.9261 131.124,100.259 131,102.5C 127.417,100.71 123.584,100.043 119.5,100.5C 122.167,99.8333 124.833,99.1667 127.5,98.5 Z"/></g>
<g><path style="opacity:1" fill="#864d3e" d="M 186.5,86.5 C 192.442,85.1085 196.776,87.1085 199.5,92.5C 197.39,92.7064 195.39,91.8731 193.5,90C 191.19,89.5034 188.857,89.3367 186.5,89.5C 186.5,88.5 186.5,87.5 186.5,86.5 Z"/></g>
<g><path style="opacity:1" fill="#874c3c" d="M 124.5,79.5 C 126.857,79.3367 129.19,79.5034 131.5,80C 132.731,81.1827 132.731,82.3493 131.5,83.5C 128.344,82.1288 125.344,82.4621 122.5,84.5C 121.417,83.635 121.251,82.635 122,81.5C 122.995,80.9341 123.828,80.2674 124.5,79.5 Z"/></g>
<g><path style="opacity:0.999" fill="#c6cbcd" d="M 289.5,168.5 C 289.5,170.833 289.5,173.167 289.5,175.5C 291.467,175.261 293.301,175.594 295,176.5C 296.16,174.203 297.16,174.536 298,177.5C 298.191,175.292 298.691,173.292 299.5,171.5C 297.375,200.896 287.042,226.896 268.5,249.5C 267.849,248.909 267.182,248.243 266.5,247.5C 265.914,247.709 265.414,248.043 265,248.5C 262.37,248.141 260.203,247.141 258.5,245.5C 276.876,223.032 287.209,197.365 289.5,168.5 Z"/></g>
<g><path style="opacity:1" fill="#f59da5" d="M 179.5,195.5 C 184.215,198.187 189.215,200.354 194.5,202C 202.607,202.827 210.607,202.327 218.5,200.5C 219.109,203.878 217.776,205.878 214.5,206.5C 213.167,206.5 211.833,206.5 210.5,206.5C 199.679,208.545 190.013,206.045 181.5,199C 180.695,197.887 180.028,196.721 179.5,195.5 Z"/></g>
<g><path style="opacity:1" fill="#c5cacb" d="M 19.5,170.5 C 20.1993,172.556 21.1993,174.556 22.5,176.5C 25.1941,175.141 27.8607,174.808 30.5,175.5C 34.1295,202.748 44.7962,226.748 62.5,247.5C 57.9597,248.009 53.6264,248.009 49.5,247.5C 30.9486,225.362 20.9486,199.695 19.5,170.5 Z"/></g>
<g><path style="opacity:1" fill="#fc8989" d="M 205.5,210.5 C 212.457,212.626 216.957,217.292 219,224.5C 219.904,232.221 218.571,239.554 215,246.5C 208.604,257.802 199.771,260.469 188.5,254.5C 179.095,238.829 181.095,224.662 194.5,212C 198.06,210.763 201.727,210.263 205.5,210.5 Z"/></g>
<g><path style="opacity:1" fill="#884e3a" d="M 88.5,142.5 C 89.1667,142.5 89.8333,142.5 90.5,142.5C 101.838,142.333 113.172,142.5 124.5,143C 129.441,146.938 134.108,151.271 138.5,156C 155.167,156.333 171.833,156.667 188.5,157C 191.573,157.697 193.573,159.53 194.5,162.5C 198.107,163.489 201.774,163.823 205.5,163.5C 205.5,164.5 205.5,165.5 205.5,166.5C 198.485,166.42 191.818,167.92 185.5,171C 176.366,177.544 174.366,185.711 179.5,195.5C 180.028,196.721 180.695,197.887 181.5,199C 190.013,206.045 199.679,208.545 210.5,206.5C 211.666,208.166 211.666,209.833 210.5,211.5C 208.929,210.691 207.262,210.357 205.5,210.5C 201.727,210.263 198.06,210.763 194.5,212C 181.095,224.662 179.095,238.829 188.5,254.5C 187.609,255.11 186.609,255.443 185.5,255.5C 153.572,254.674 121.572,254.174 89.5,254C 83.5112,251.587 80.5112,247.087 80.5,240.5C 65.6211,228.376 61.4544,213.376 68,195.5C 70.3996,193.585 72.8996,191.919 75.5,190.5C 77.5,190.5 79.5,190.5 81.5,190.5C 81.8235,183.978 81.4902,177.645 80.5,171.5C 75.8547,168.855 72.188,165.188 69.5,160.5C 69.2852,158.821 69.9519,157.821 71.5,157.5C 73.7657,161.436 76.7657,164.769 80.5,167.5C 81.4954,161.872 81.8288,156.206 81.5,150.5C 82.4525,146.577 84.7858,143.91 88.5,142.5 Z"/></g>
<g><path style="opacity:1" fill="#f8bf5a" d="M 179.5,243.5 C 180.566,245.701 181.233,248.035 181.5,250.5C 150.832,250.667 120.165,250.5 89.5,250C 87.3563,249.208 86.023,247.708 85.5,245.5C 85.56,244.957 85.8933,244.624 86.5,244.5C 87.7003,245.531 89.0337,246.365 90.5,247C 119.167,247.667 147.833,247.667 176.5,247C 177.636,245.855 178.636,244.688 179.5,243.5 Z"/></g>
<g><path style="opacity:1" fill="#bf6b67" d="M 80.5,194.5 C 81.8255,208.006 81.8255,221.672 80.5,235.5C 79.8933,235.376 79.56,235.043 79.5,234.5C 80.4956,221.344 80.8289,208.01 80.5,194.5 Z"/></g>
<g><path style="opacity:1" fill="#f3bd5c" d="M 180.5,202.5 C 183.898,205.721 187.898,207.887 192.5,209C 189.268,212.062 186.268,215.229 183.5,218.5C 183.665,214.818 183.499,211.152 183,207.5C 181.117,206.347 180.284,204.681 180.5,202.5 Z"/></g>
<g><path style="opacity:1" fill="#fb898a" d="M 80.5,194.5 C 80.8289,208.01 80.4956,221.344 79.5,234.5C 68.2899,224.047 65.4566,211.714 71,197.5C 73.6417,194.971 76.8084,193.971 80.5,194.5 Z"/></g>
<g><path style="opacity:1" fill="#fdd982" d="M 180.5,202.5 C 180.284,204.681 181.117,206.347 183,207.5C 183.499,211.152 183.665,214.818 183.5,218.5C 180.047,226.436 178.714,234.77 179.5,243.5C 178.636,244.688 177.636,245.855 176.5,247C 147.833,247.667 119.167,247.667 90.5,247C 89.0337,246.365 87.7003,245.531 86.5,244.5C 85.8933,244.624 85.56,244.957 85.5,245.5C 84.336,214.003 84.1693,182.336 85,150.5C 85.8333,149 87,147.833 88.5,147C 100.5,146.333 112.5,146.333 124.5,147C 128.833,151.333 133.167,155.667 137.5,160C 154.5,160.333 171.5,160.667 188.5,161C 190.421,162.241 190.754,163.741 189.5,165.5C 176.233,170.369 171.066,179.702 174,193.5C 175.643,196.961 177.81,199.961 180.5,202.5 Z"/></g>
<g><path style="opacity:1" fill="#fdefc1" d="M 115.5,195.5 C 129.171,195.333 142.837,195.5 156.5,196C 159.438,197.92 160.105,200.42 158.5,203.5C 143.845,204.666 129.178,204.833 114.5,204C 111.665,200.695 111.999,197.862 115.5,195.5 Z"/></g>
<g><path style="opacity:1" fill="#bdbebf" d="M 258.5,245.5 C 260.203,247.141 262.37,248.141 265,248.5C 265.414,248.043 265.914,247.709 266.5,247.5C 267.182,248.243 267.849,248.909 268.5,249.5C 235.464,288.807 193.13,305.974 141.5,301C 106.752,295.878 77.5856,280.378 54,254.5C 52.2502,252.266 50.7502,249.932 49.5,247.5C 53.6264,248.009 57.9597,248.009 62.5,247.5C 78.6699,264.76 98.0033,277.26 120.5,285C 174.446,298.853 220.446,285.686 258.5,245.5 Z"/></g>
</svg>
