<?xml version="1.0" encoding="UTF-8"?>
<!DOCTYPE svg PUBLIC "-//W3C//DTD SVG 1.1//EN" "http://www.w3.org/Graphics/SVG/1.1/DTD/svg11.dtd">
<svg xmlns="http://www.w3.org/2000/svg" version="1.1" width="320px" height="320px" style="shape-rendering:geometricPrecision; text-rendering:geometricPrecision; image-rendering:optimizeQuality; fill-rule:evenodd; clip-rule:evenodd" xmlns:xlink="http://www.w3.org/1999/xlink">
<g><path style="opacity:0.075" fill="#020202" d="M 141.5,16.5 C 193.73,11.6246 237.563,28.2913 273,66.5C 304.432,106.913 314.432,152.246 303,202.5C 284.569,264.6 243.403,300.767 179.5,311C 117.029,317.32 68.1959,294.82 33,243.5C 11.3532,205.055 6.01985,164.389 17,121.5C 36.9425,60.7987 78.4425,25.7987 141.5,16.5 Z"/></g>
<g><path style="opacity:1" fill="#fcfcfc" d="M 258.5,61.5 C 259.35,63.4944 259.85,65.4944 260,67.5C 256.833,67.284 253.833,66.6173 251,65.5C 250.333,66.5 250.333,67.5 251,68.5C 264.201,81.8589 274.367,97.1922 281.5,114.5C 288.343,134.601 290.677,155.267 288.5,176.5C 285.128,202.962 274.794,226.295 257.5,246.5C 221.675,284.552 178.008,298.052 126.5,287C 100.952,279.568 79.285,266.068 61.5,246.5C 44.3757,225.907 34.0423,202.24 30.5,175.5C 28.5174,154.967 30.8507,134.967 37.5,115.5C 45.0457,96.7709 56.0457,80.2709 70.5,66C 67.9319,66.3347 65.4319,66.5014 63,66.5C 62.0546,66.0946 61.3879,65.428 61,64.5C 60.6667,64.8333 60.3333,65.1667 60,65.5C 59.805,64.1807 59.9717,62.8474 60.5,61.5C 105.779,19.6629 157.446,9.82952 215.5,32C 231.988,38.8937 246.322,48.727 258.5,61.5 Z"/></g>
<g><path style="opacity:1" fill="#fdd1cb" d="M 241.5,123.5 C 240.537,134.187 238.537,144.687 235.5,155C 238.952,160.407 241.452,166.24 243,172.5C 243.698,182.199 243.365,191.866 242,201.5C 238.094,210.246 231.594,215.912 222.5,218.5C 221.255,215.013 219.255,212.013 216.5,209.5C 218.176,208.272 218.509,206.939 217.5,205.5C 219.279,204.33 220.279,202.664 220.5,200.5C 212.182,201.407 203.849,201.573 195.5,201C 189.785,199.638 184.451,197.471 179.5,194.5C 174.624,184.955 176.624,177.122 185.5,171C 192.289,167 199.623,165.5 207.5,166.5C 207.5,165.5 207.5,164.5 207.5,163.5C 204.167,163.5 200.833,163.5 197.5,163.5C 197.771,161.62 197.104,160.287 195.5,159.5C 200.316,158.674 205.316,158.174 210.5,158C 217.356,155.989 219.189,151.822 216,145.5C 209.447,142.367 202.614,141.7 195.5,143.5C 198.246,140.762 200.58,137.762 202.5,134.5C 203.189,135.774 204.023,135.774 205,134.5C 210.327,121.63 207.493,111.13 196.5,103C 191.768,100.599 186.768,99.932 181.5,101C 178.734,102.371 176.401,104.204 174.5,106.5C 166.946,113.959 164.446,122.959 167,133.5C 167.697,135.584 168.864,137.251 170.5,138.5C 173.98,143.028 178.646,144.695 184.5,143.5C 183.391,144.29 182.058,144.79 180.5,145C 184.537,145.607 188.537,145.44 192.5,144.5C 191.207,146.296 189.707,147.963 188,149.5C 187.505,151.473 187.338,153.473 187.5,155.5C 170.83,155.667 154.163,155.5 137.5,155C 133.082,150.243 128.415,145.91 123.5,142C 111.5,141.333 99.5,141.333 87.5,142C 83.0778,143.244 80.7445,146.077 80.5,150.5C 79.5166,154.298 79.1832,158.298 79.5,162.5C 77.3875,161.56 75.3875,160.394 73.5,159C 71.9697,156.648 70.3031,154.481 68.5,152.5C 66.6441,142.592 69.1441,133.926 76,126.5C 79,124.167 82,121.833 85,119.5C 93.4912,87.0088 113.991,66.5088 146.5,58C 177.283,54.3927 203.449,63.5593 225,85.5C 234.08,96.5611 239.58,109.228 241.5,123.5 Z"/></g>
<g><path style="opacity:0.999" fill="#e3e8e9" d="M 60.5,61.5 C 59.9717,62.8474 59.805,64.1807 60,65.5C 60.3333,65.1667 60.6667,64.8333 61,64.5C 61.3879,65.428 62.0546,66.0946 63,66.5C 65.4319,66.5014 67.9319,66.3347 70.5,66C 56.0457,80.2709 45.0457,96.7709 37.5,115.5C 37.189,114.522 36.5223,113.855 35.5,113.5C 33.5,113.833 31.5,114.167 29.5,114.5C 29.0798,112.674 29.0798,110.674 29.5,108.5C 36.2443,90.4306 46.5776,74.7639 60.5,61.5 Z"/></g>
<g><path style="opacity:0.999" fill="#e3e8e9" d="M 258.5,61.5 C 271.233,74.2456 281.233,88.9123 288.5,105.5C 289.057,107.949 289.057,110.282 288.5,112.5C 286.271,113.577 283.937,114.244 281.5,114.5C 274.367,97.1922 264.201,81.8589 251,68.5C 250.333,67.5 250.333,66.5 251,65.5C 253.833,66.6173 256.833,67.284 260,67.5C 259.85,65.4944 259.35,63.4944 258.5,61.5 Z"/></g>
<g><path style="opacity:1" fill="#935c5a" d="M 184.5,253.5 C 185.833,253.5 186.5,252.833 186.5,251.5C 193.305,258.516 200.972,259.349 209.5,254C 212.067,251.604 214.4,249.104 216.5,246.5C 217.705,247.686 219.039,247.686 220.5,246.5C 220.56,247.043 220.893,247.376 221.5,247.5C 245.439,231.937 254.939,209.937 250,181.5C 248.523,171.568 245.356,162.235 240.5,153.5C 242.597,143.407 242.93,133.407 241.5,123.5C 239.58,109.228 234.08,96.5611 225,85.5C 203.449,63.5593 177.283,54.3927 146.5,58C 113.991,66.5088 93.4912,87.0088 85,119.5C 82,121.833 79,124.167 76,126.5C 69.1441,133.926 66.6441,142.592 68.5,152.5C 69.7774,157.843 72.4441,162.343 76.5,166C 77.448,166.483 78.448,166.649 79.5,166.5C 79.5,165.167 79.5,163.833 79.5,162.5C 79.1832,158.298 79.5166,154.298 80.5,150.5C 80.5,156.167 80.5,161.833 80.5,167.5C 79.5,167.5 78.5,167.5 77.5,167.5C 77.5,168.5 77.5,169.5 77.5,170.5C 67.7206,165.17 63.3873,156.836 64.5,145.5C 64.0943,137.314 66.761,130.314 72.5,124.5C 75.5202,121.645 78.6868,118.979 82,116.5C 90.3432,84.4893 110.51,63.9893 142.5,55C 183.706,48.7226 215.539,62.8893 238,97.5C 246.29,115.282 248.456,133.782 244.5,153C 255.546,174.653 257.38,197.153 250,220.5C 243.51,236.825 232.01,247.825 215.5,253.5C 207.376,262.256 198.042,263.756 187.5,258C 185.859,256.871 184.859,255.371 184.5,253.5 Z"/></g>
<g><path style="opacity:1" fill="#8d5553" d="M 202.5,134.5 C 207.862,120.069 203.529,109.902 189.5,104C 187.167,103.333 184.833,103.333 182.5,104C 180.114,105.193 177.78,106.36 175.5,107.5C 174.833,107.5 174.5,107.167 174.5,106.5C 176.401,104.204 178.734,102.371 181.5,101C 186.768,99.932 191.768,100.599 196.5,103C 207.493,111.13 210.327,121.63 205,134.5C 204.023,135.774 203.189,135.774 202.5,134.5 Z"/></g>
<g><path style="opacity:1" fill="#fea4a2" d="M 102.5,126.5 C 103.167,127.167 103.833,127.833 104.5,128.5C 105.737,129.965 106.737,131.632 107.5,133.5C 107.756,135.792 107.423,137.959 106.5,140C 100.833,140.667 95.1667,140.667 89.5,140C 84.1211,138.323 81.6211,134.823 82,129.5C 83.1667,128.333 84.3333,127.167 85.5,126C 91.188,125.446 96.8546,125.613 102.5,126.5 Z"/></g>
<g><path style="opacity:1" fill="#713f3e" d="M 174.5,106.5 C 174.5,107.167 174.833,107.5 175.5,107.5C 175.369,108.239 175.536,108.906 176,109.5C 183.818,104.756 190.818,105.756 197,112.5C 200.48,119.745 200.313,126.745 196.5,133.5C 195.167,133.5 193.833,133.5 192.5,133.5C 192.737,132.209 192.404,131.209 191.5,130.5C 189.855,129.521 188.521,128.188 187.5,126.5C 185.758,128.563 184.091,130.563 182.5,132.5C 182.25,133.922 181.417,134.922 180,135.5C 179.184,134.177 178.017,133.511 176.5,133.5C 175.033,131.157 173.699,131.49 172.5,134.5C 172.863,135.183 173.196,135.85 173.5,136.5C 173.179,138.048 172.179,138.715 170.5,138.5C 168.864,137.251 167.697,135.584 167,133.5C 164.446,122.959 166.946,113.959 174.5,106.5 Z"/></g>
<g><path style="opacity:1" fill="#dbd1cb" d="M 173.5,122.5 C 175.603,124.018 175.77,125.685 174,127.5C 172.212,125.977 172.045,124.31 173.5,122.5 Z"/></g>
<g><path style="opacity:1" fill="#e5ddd7" d="M 191.5,117.5 C 193.625,118.368 193.791,119.368 192,120.5C 190.317,119.824 190.15,118.824 191.5,117.5 Z"/></g>
<g><path style="opacity:1" fill="#f4ebe2" d="M 180.5,108.5 C 184.156,108.823 186.156,110.823 186.5,114.5C 186.179,121.564 183.013,123.564 177,120.5C 176.219,119.271 175.719,117.938 175.5,116.5C 176.366,113.308 178.032,110.641 180.5,108.5 Z"/></g>
<g><path style="opacity:1" fill="#efe4db" d="M 127.5,99.5 C 117.724,98.7571 111.224,103.09 108,112.5C 107.308,117.891 107.641,123.225 109,128.5C 110.736,131.739 113.236,134.073 116.5,135.5C 117.609,136.29 118.942,136.79 120.5,137C 115.749,137.36 111.416,136.194 107.5,133.5C 106.737,131.632 105.737,129.965 104.5,128.5C 101.62,116.506 104.953,106.673 114.5,99C 118.761,97.6374 123.095,97.3041 127.5,98C 128.738,98.69 128.738,99.19 127.5,99.5 Z"/></g>
<g><path style="opacity:1" fill="#f0e5dc" d="M 202.5,134.5 C 200.58,137.762 198.246,140.762 195.5,143.5C 194.391,143.557 193.391,143.89 192.5,144.5C 188.537,145.44 184.537,145.607 180.5,145C 182.058,144.79 183.391,144.29 184.5,143.5C 190.5,142.508 194.5,139.175 196.5,133.5C 200.313,126.745 200.48,119.745 197,112.5C 190.818,105.756 183.818,104.756 176,109.5C 175.536,108.906 175.369,108.239 175.5,107.5C 177.78,106.36 180.114,105.193 182.5,104C 184.833,103.333 187.167,103.333 189.5,104C 203.529,109.902 207.862,120.069 202.5,134.5 Z"/></g>
<g><path style="opacity:1" fill="#754341" d="M 127.5,99.5 C 129.102,101.074 131.102,101.741 133.5,101.5C 137.61,110.112 137.443,118.779 133,127.5C 129.351,133.981 123.851,136.648 116.5,135.5C 113.236,134.073 110.736,131.739 109,128.5C 107.641,123.225 107.308,117.891 108,112.5C 111.224,103.09 117.724,98.7571 127.5,99.5 Z"/></g>
<g><path style="opacity:1" fill="#e6b769" d="M 114.5,123.5 C 118.343,124.931 118.509,126.931 115,129.5C 114.535,128.069 113.701,126.903 112.5,126C 113.381,125.292 114.047,124.458 114.5,123.5 Z"/></g>
<g><path style="opacity:1" fill="#ded4cd" d="M 124.5,118.5 C 128.982,120.415 129.316,122.749 125.5,125.5C 124.167,124.833 123.167,123.833 122.5,122.5C 123.853,121.476 124.52,120.143 124.5,118.5 Z"/></g>
<g><path style="opacity:1" fill="#e2d9d3" d="M 114.5,114.5 C 116.852,115.543 117.019,116.876 115,118.5C 113.232,117.318 113.065,115.985 114.5,114.5 Z"/></g>
<g><path style="opacity:1" fill="#d9d0cb" d="M 128.5,112.5 C 131.957,112.667 132.29,113.667 129.5,115.5C 128.614,114.675 128.281,113.675 128.5,112.5 Z"/></g>
<g><path style="opacity:1" fill="#f1e9df" d="M 120.5,102.5 C 124.841,101.52 127.174,103.187 127.5,107.5C 126.969,114.747 123.635,116.747 117.5,113.5C 115.852,109.124 116.852,105.458 120.5,102.5 Z"/></g>
<g><path style="opacity:1" fill="#905957" d="M 133.5,101.5 C 131.102,101.741 129.102,101.074 127.5,99.5C 128.738,99.19 128.738,98.69 127.5,98C 123.095,97.3041 118.761,97.6374 114.5,99C 104.953,106.673 101.62,116.506 104.5,128.5C 103.833,127.833 103.167,127.167 102.5,126.5C 98.5472,113.913 101.881,103.747 112.5,96C 118.182,94.0637 123.848,94.0637 129.5,96C 131.464,97.451 132.797,99.2843 133.5,101.5 Z"/></g>
<g><path style="opacity:1" fill="#915a58" d="M 187.5,86.5 C 190.518,86.3354 193.518,86.502 196.5,87C 199.059,88.3234 199.725,90.1567 198.5,92.5C 197.354,91.8551 196.354,91.0217 195.5,90C 192.447,89.8214 189.447,89.3214 186.5,88.5C 186.863,87.8165 187.196,87.1499 187.5,86.5 Z"/></g>
<g><path style="opacity:1" fill="#8c5351" d="M 122.5,80.5 C 125.572,80.1826 128.572,80.5159 131.5,81.5C 128.039,82.1347 124.705,83.1347 121.5,84.5C 121.167,84 120.833,83.5 120.5,83C 121.056,81.9889 121.722,81.1556 122.5,80.5 Z"/></g>
<g><path style="opacity:1" fill="#eaca7a" d="M 191.5,130.5 C 190.611,132.736 189.278,134.736 187.5,136.5C 186.234,134.596 184.567,133.263 182.5,132.5C 184.091,130.563 185.758,128.563 187.5,126.5C 188.521,128.188 189.855,129.521 191.5,130.5 Z"/></g>
<g><path style="opacity:1" fill="#e1af66" d="M 119.5,129.5 C 121.086,130.413 122.586,130.413 124,129.5C 126,130.833 126,132.167 124,133.5C 122.887,132.289 121.72,132.289 120.5,133.5C 118.358,132.563 118.024,131.23 119.5,129.5 Z"/></g>
<g><path style="opacity:1" fill="#e5b265" d="M 176.5,133.5 C 176.5,135.5 175.5,136.5 173.5,136.5C 173.196,135.85 172.863,135.183 172.5,134.5C 173.699,131.49 175.033,131.157 176.5,133.5 Z"/></g>
<g><path style="opacity:1" fill="#89534e" d="M 191.5,130.5 C 192.404,131.209 192.737,132.209 192.5,133.5C 193.833,133.5 195.167,133.5 196.5,133.5C 194.5,139.175 190.5,142.508 184.5,143.5C 178.646,144.695 173.98,143.028 170.5,138.5C 172.179,138.715 173.179,138.048 173.5,136.5C 175.5,136.5 176.5,135.5 176.5,133.5C 178.017,133.511 179.184,134.177 180,135.5C 181.417,134.922 182.25,133.922 182.5,132.5C 184.567,133.263 186.234,134.596 187.5,136.5C 189.278,134.736 190.611,132.736 191.5,130.5 Z"/></g>
<g><path style="opacity:1" fill="#e3c67c" d="M 180.5,137.5 C 183.428,138.637 183.762,139.97 181.5,141.5C 179.358,140.563 179.024,139.23 180.5,137.5 Z"/></g>
<g><path style="opacity:1" fill="#905956" d="M 134.5,133.5 C 135.552,133.351 136.552,133.517 137.5,134C 144.209,141.672 151.709,142.505 160,136.5C 160.5,136.833 161,137.167 161.5,137.5C 154.787,143.042 147.454,143.876 139.5,140C 137.21,138.223 135.543,136.056 134.5,133.5 Z"/></g>
<g><path style="opacity:1" fill="#905754" d="M 187.5,155.5 C 190.45,156.308 193.117,157.642 195.5,159.5C 197.104,160.287 197.771,161.62 197.5,163.5C 200.833,163.5 204.167,163.5 207.5,163.5C 207.5,164.5 207.5,165.5 207.5,166.5C 199.623,165.5 192.289,167 185.5,171C 176.624,177.122 174.624,184.955 179.5,194.5C 185.612,203.136 194.112,207.136 205,206.5C 209.176,206.192 213.342,205.858 217.5,205.5C 218.509,206.939 218.176,208.272 216.5,209.5C 219.255,212.013 221.255,215.013 222.5,218.5C 225.622,228.098 224.955,237.431 220.5,246.5C 219.039,247.686 217.705,247.686 216.5,246.5C 221.922,235.672 221.755,225.005 216,214.5C 205.926,208.236 196.926,209.569 189,218.5C 182.578,229.071 181.745,240.071 186.5,251.5C 186.5,252.833 185.833,253.5 184.5,253.5C 151.571,252.674 118.571,252.174 85.5,252C 82.4916,249.482 80.4916,246.316 79.5,242.5C 65.2547,230.667 60.088,215.667 64,197.5C 67.7398,192.101 72.9065,189.767 79.5,190.5C 80.1255,183.416 79.4589,176.75 77.5,170.5C 77.5,169.5 77.5,168.5 77.5,167.5C 78.5,167.5 79.5,167.5 80.5,167.5C 80.5,161.833 80.5,156.167 80.5,150.5C 80.7445,146.077 83.0778,143.244 87.5,142C 99.5,141.333 111.5,141.333 123.5,142C 128.415,145.91 133.082,150.243 137.5,155C 154.163,155.5 170.83,155.667 187.5,155.5 Z"/></g>
<g><path style="opacity:1" fill="#fea4a2" d="M 195.5,159.5 C 193.117,157.642 190.45,156.308 187.5,155.5C 187.338,153.473 187.505,151.473 188,149.5C 189.707,147.963 191.207,146.296 192.5,144.5C 193.391,143.89 194.391,143.557 195.5,143.5C 202.614,141.7 209.447,142.367 216,145.5C 219.189,151.822 217.356,155.989 210.5,158C 205.316,158.174 200.316,158.674 195.5,159.5 Z"/></g>
<g><path style="opacity:1" fill="#fde39e" d="M 180.5,227.5 C 178.901,232.569 178.067,237.902 178,243.5C 177.097,244.701 175.931,245.535 174.5,246C 146.167,246.667 117.833,246.667 89.5,246C 87.9751,244.991 86.3084,244.491 84.5,244.5C 83.3483,212.875 83.1817,181.209 84,149.5C 85.214,147.951 86.714,146.785 88.5,146C 99.8333,145.333 111.167,145.333 122.5,146C 127.5,149.667 131.833,154 135.5,159C 152.833,159.333 170.167,159.667 187.5,160C 189.555,160.687 191.221,161.854 192.5,163.5C 173.302,170.552 168.802,182.885 179,200.5C 183.391,204.778 188.557,207.611 194.5,209C 187.35,213.313 182.684,219.479 180.5,227.5 Z"/></g>
<g><path style="opacity:1" fill="#d3dcdc" d="M 29.5,108.5 C 29.0798,110.674 29.0798,112.674 29.5,114.5C 31.5,114.167 33.5,113.833 35.5,113.5C 36.5223,113.855 37.189,114.522 37.5,115.5C 30.8507,134.967 28.5174,154.967 30.5,175.5C 27.8607,174.808 25.1941,175.141 22.5,176.5C 21.1993,174.556 20.1993,172.556 19.5,170.5C 18.7197,155.659 19.8863,140.992 23,126.5C 24.8771,120.279 27.0438,114.279 29.5,108.5 Z"/></g>
<g><path style="opacity:1" fill="#d0d9da" d="M 288.5,105.5 C 297.824,126.465 301.49,148.465 299.5,171.5C 298.691,173.292 298.191,175.292 298,177.5C 297.16,174.536 296.16,174.203 295,176.5C 292.837,175.232 290.67,175.232 288.5,176.5C 290.677,155.267 288.343,134.601 281.5,114.5C 283.937,114.244 286.271,113.577 288.5,112.5C 289.057,110.282 289.057,107.949 288.5,105.5 Z"/></g>
<g><path style="opacity:1" fill="#fcaaa4" d="M 241.5,123.5 C 242.93,133.407 242.597,143.407 240.5,153.5C 245.356,162.235 248.523,171.568 250,181.5C 254.939,209.937 245.439,231.937 221.5,247.5C 220.893,247.376 220.56,247.043 220.5,246.5C 224.955,237.431 225.622,228.098 222.5,218.5C 231.594,215.912 238.094,210.246 242,201.5C 243.365,191.866 243.698,182.199 243,172.5C 241.452,166.24 238.952,160.407 235.5,155C 238.537,144.687 240.537,134.187 241.5,123.5 Z"/></g>
<g><path style="opacity:1" fill="#f7a7a2" d="M 68.5,152.5 C 70.3031,154.481 71.9697,156.648 73.5,159C 75.3875,160.394 77.3875,161.56 79.5,162.5C 79.5,163.833 79.5,165.167 79.5,166.5C 78.448,166.649 77.448,166.483 76.5,166C 72.4441,162.343 69.7774,157.843 68.5,152.5 Z"/></g>
<g><path style="opacity:0.999" fill="#c6cccd" d="M 19.5,170.5 C 20.1993,172.556 21.1993,174.556 22.5,176.5C 25.1941,175.141 27.8607,174.808 30.5,175.5C 34.0423,202.24 44.3757,225.907 61.5,246.5C 60.5272,247.791 59.5272,247.791 58.5,246.5C 57.5224,246.977 56.6891,247.643 56,248.5C 55.6667,247.833 55.3333,247.167 55,246.5C 52.9749,247.26 51.1415,247.594 49.5,247.5C 30.9486,225.362 20.9486,199.695 19.5,170.5 Z"/></g>
<g><path style="opacity:0.999" fill="#c6cccd" d="M 299.5,171.5 C 297.375,200.896 287.042,226.896 268.5,249.5C 267.849,248.909 267.182,248.243 266.5,247.5C 265.914,247.709 265.414,248.043 265,248.5C 262.564,247.645 260.064,246.979 257.5,246.5C 274.794,226.295 285.128,202.962 288.5,176.5C 290.67,175.232 292.837,175.232 295,176.5C 296.16,174.203 297.16,174.536 298,177.5C 298.191,175.292 298.691,173.292 299.5,171.5 Z"/></g>
<g><path style="opacity:1" fill="#fb9486" d="M 73.5,193.5 C 75.5,193.5 77.5,193.5 79.5,193.5C 79.6666,208.17 79.4999,222.837 79,237.5C 68.7175,227.6 64.7175,215.6 67,201.5C 68.3046,198.039 70.4713,195.372 73.5,193.5 Z"/></g>
<g><path style="opacity:1" fill="#fef6e6" d="M 115.5,193.5 C 129.837,193.333 144.171,193.5 158.5,194C 162.5,197.333 162.5,200.667 158.5,204C 144.167,204.667 129.833,204.667 115.5,204C 112.91,200.471 112.91,196.971 115.5,193.5 Z"/></g>
<g><path style="opacity:1" fill="#f8aaa4" d="M 179.5,194.5 C 184.451,197.471 189.785,199.638 195.5,201C 203.849,201.573 212.182,201.407 220.5,200.5C 220.279,202.664 219.279,204.33 217.5,205.5C 213.342,205.858 209.176,206.192 205,206.5C 194.112,207.136 185.612,203.136 179.5,194.5 Z"/></g>
<g><path style="opacity:1" fill="#fc9586" d="M 216.5,246.5 C 214.4,249.104 212.067,251.604 209.5,254C 200.972,259.349 193.305,258.516 186.5,251.5C 181.745,240.071 182.578,229.071 189,218.5C 196.926,209.569 205.926,208.236 216,214.5C 221.755,225.005 221.922,235.672 216.5,246.5 Z"/></g>
<g><path style="opacity:1" fill="#e5ba72" d="M 180.5,227.5 C 179.227,234.829 179.227,242.163 180.5,249.5C 149.832,249.667 119.165,249.5 88.5,249C 86.249,248.252 84.9156,246.752 84.5,244.5C 86.3084,244.491 87.9751,244.991 89.5,246C 117.833,246.667 146.167,246.667 174.5,246C 175.931,245.535 177.097,244.701 178,243.5C 178.067,237.902 178.901,232.569 180.5,227.5 Z"/></g>
<g><path style="opacity:1" fill="#bdbebe" d="M 61.5,246.5 C 79.285,266.068 100.952,279.568 126.5,287C 178.008,298.052 221.675,284.552 257.5,246.5C 260.064,246.979 262.564,247.645 265,248.5C 265.414,248.043 265.914,247.709 266.5,247.5C 267.182,248.243 267.849,248.909 268.5,249.5C 235.464,288.807 193.13,305.974 141.5,301C 106.752,295.878 77.5856,280.378 54,254.5C 52.2502,252.266 50.7502,249.932 49.5,247.5C 51.1415,247.594 52.9749,247.26 55,246.5C 55.3333,247.167 55.6667,247.833 56,248.5C 56.6891,247.643 57.5224,246.977 58.5,246.5C 59.5272,247.791 60.5272,247.791 61.5,246.5 Z"/></g>
</svg>
