<?xml version="1.0" encoding="UTF-8"?>
<!DOCTYPE svg PUBLIC "-//W3C//DTD SVG 1.1//EN" "http://www.w3.org/Graphics/SVG/1.1/DTD/svg11.dtd">
<svg xmlns="http://www.w3.org/2000/svg" version="1.1" width="320px" height="320px" style="shape-rendering:geometricPrecision; text-rendering:geometricPrecision; image-rendering:optimizeQuality; fill-rule:evenodd; clip-rule:evenodd" xmlns:xlink="http://www.w3.org/1999/xlink">
<g><path style="opacity:0.075" fill="#020202" d="M 141.5,16.5 C 193.73,11.6246 237.563,28.2913 273,66.5C 304.432,106.913 314.432,152.246 303,202.5C 284.569,264.6 243.403,300.767 179.5,311C 117.029,317.32 68.1959,294.82 33,243.5C 11.3532,205.055 6.01985,164.389 17,121.5C 36.9425,60.7987 78.4425,25.7987 141.5,16.5 Z"/></g>
<g><path style="opacity:0.999" fill="#f2f3f3" d="M 222.5,35.5 C 220.797,37.1408 218.63,38.1408 216,38.5C 210.762,37.8223 205.596,37.4889 200.5,37.5C 151.629,23.3185 108.296,32.9852 70.5,66.5C 68.0847,66.4453 65.5847,66.4453 63,66.5C 62.0546,66.0946 61.3879,65.428 61,64.5C 60.9109,67.8486 59.7443,68.3486 57.5,66C 58.2524,65.3292 58.5858,64.4959 58.5,63.5C 99.2518,23.9034 147.252,11.7367 202.5,27C 209.39,29.5659 216.057,32.3993 222.5,35.5 Z"/></g>
<g><path style="opacity:1" fill="#070605" d="M 200.5,37.5 C 236.778,51.1132 263.112,75.4465 279.5,110.5C 285.629,127.27 288.962,144.603 289.5,162.5C 288.392,192.26 278.726,218.927 260.5,242.5C 218.365,288.702 167.699,301.202 108.5,280C 90.0982,272.08 74.4315,260.58 61.5,245.5C 38.662,217.759 28.3286,185.759 30.5,149.5C 33.9389,116.958 47.2722,89.2918 70.5,66.5C 108.296,32.9852 151.629,23.3185 200.5,37.5 Z"/></g>
<g><path style="opacity:1" fill="#e9ecec" d="M 222.5,35.5 C 253.061,50.7282 275.061,74.0615 288.5,105.5C 288.357,107.262 288.691,108.929 289.5,110.5C 286.269,110.963 282.936,110.963 279.5,110.5C 263.112,75.4465 236.778,51.1132 200.5,37.5C 205.596,37.4889 210.762,37.8223 216,38.5C 218.63,38.1408 220.797,37.1408 222.5,35.5 Z"/></g>
<g><path style="opacity:1" fill="#fdcdc9" d="M 239.5,110.5 C 243.108,125.463 241.774,139.963 235.5,154C 244.476,171.682 245.642,189.849 239,208.5C 235.696,215.568 230.196,218.568 222.5,217.5C 220.901,215.396 219.068,213.396 217,211.5C 216.53,210.423 216.697,209.423 217.5,208.5C 220.869,207.441 222.536,205.108 222.5,201.5C 214.267,203.285 205.934,203.785 197.5,203C 191.744,201.314 186.077,199.48 180.5,197.5C 173.436,185.597 176.103,176.431 188.5,170C 194.619,167.916 200.952,166.916 207.5,167C 208.833,166 208.833,165 207.5,164C 204.167,163.667 200.833,163.333 197.5,163C 196.335,161.008 195.002,159.175 193.5,157.5C 174.877,156.692 156.21,156.192 137.5,156C 133.604,150.602 128.937,146.102 123.5,142.5C 116.679,141.671 109.679,141.171 102.5,141C 106.104,139.666 107.271,137.166 106,133.5C 101.319,127.24 95.1521,124.407 87.5,125C 81.0678,130.675 81.0678,136.508 87.5,142.5C 83.9802,143.183 81.4802,145.183 80,148.5C 79.501,152.821 79.3343,157.154 79.5,161.5C 74.953,159.294 70.953,156.294 67.5,152.5C 65.9529,145.937 66.7863,139.604 70,133.5C 74.3333,127.833 79.3333,122.833 85,118.5C 91.8519,89.978 109.019,70.478 136.5,60C 176.64,49.9307 208.806,61.4307 233,94.5C 235.997,99.4942 238.164,104.828 239.5,110.5 Z"/></g>
<g><path style="opacity:1" fill="#7e3a3e" d="M 119.5,255.5 C 138.671,254.833 158.004,254.167 177.5,253.5C 178.949,252.828 180.282,252.161 181.5,251.5C 179.682,246.729 179.015,241.729 179.5,236.5C 180.022,234.781 181.022,233.448 182.5,232.5C 180.313,242.936 183.313,251.436 191.5,258C 204.963,260.55 214.13,255.383 219,242.5C 221.242,236.251 221.742,229.917 220.5,223.5C 220.157,221.517 220.824,220.183 222.5,219.5C 223.981,223.141 224.648,226.975 224.5,231C 223.747,237.305 222.58,243.471 221,249.5C 238.223,239.407 248.223,224.407 251,204.5C 251.807,195.454 251.474,186.454 250,177.5C 247.915,169.073 245.081,160.906 241.5,153C 243.831,140.866 243.998,128.699 242,116.5C 241.434,114.277 240.6,112.277 239.5,110.5C 238.164,104.828 235.997,99.4942 233,94.5C 208.806,61.4307 176.64,49.9307 136.5,60C 109.019,70.478 91.8519,89.978 85,118.5C 79.3333,122.833 74.3333,127.833 70,133.5C 66.7863,139.604 65.9529,145.937 67.5,152.5C 67.8333,153.833 68.1667,155.167 68.5,156.5C 68.5858,157.496 68.2524,158.329 67.5,159C 69.6861,161.372 71.0195,164.206 71.5,167.5C 69.5305,165.353 67.6971,163.02 66,160.5C 61.1967,147.266 63.1967,135.266 72,124.5C 75.2938,121.776 78.4605,118.943 81.5,116C 91.1584,80.3398 114.158,59.3398 150.5,53C 186.616,49.2964 215.116,62.1298 236,91.5C 247.084,111.143 250.75,132.143 247,154.5C 256.687,176.29 258.021,198.623 251,221.5C 246.399,232.096 239.566,240.929 230.5,248C 221.016,252.239 212.016,257.239 203.5,263C 195.448,264.641 188.782,262.308 183.5,256C 162.169,255.5 140.836,255.333 119.5,255.5 Z"/></g>
<g><path style="opacity:1" fill="#763839" d="M 122.5,79.5 C 125.518,79.3354 128.518,79.502 131.5,80C 132.731,81.1827 132.731,82.3493 131.5,83.5C 128.035,80.8783 124.535,80.8783 121,83.5C 120.7,81.9343 121.2,80.601 122.5,79.5 Z"/></g>
<g><path style="opacity:1" fill="#763738" d="M 188.5,85.5 C 193.126,84.7004 196.96,86.0337 200,89.5C 200.667,90.5 200.667,91.5 200,92.5C 196.969,87.9731 192.969,86.6398 188,88.5C 187.53,87.4232 187.697,86.4232 188.5,85.5 Z"/></g>
<g><path style="opacity:1" fill="#dad1d2" d="M 204.5,133.5 C 203.728,134.694 202.728,135.694 201.5,136.5C 204.645,127.691 203.978,119.191 199.5,111C 197.939,110.812 197.272,111.645 197.5,113.5C 195.691,110.861 193.358,108.694 190.5,107C 185.578,106.208 180.912,106.541 176.5,108C 185.909,101.37 194.409,102.537 202,111.5C 205.432,118.556 206.265,125.889 204.5,133.5 Z"/></g>
<g><path style="opacity:1" fill="#682a2c" d="M 204.5,133.5 C 206.265,125.889 205.432,118.556 202,111.5C 194.409,102.537 185.909,101.37 176.5,108C 180.912,106.541 185.578,106.208 190.5,107C 193.358,108.694 195.691,110.861 197.5,113.5C 198.441,115.05 199.107,116.716 199.5,118.5C 199.647,123.214 199.314,127.881 198.5,132.5C 196.1,138.566 191.767,142.566 185.5,144.5C 175.762,145.887 169.595,141.887 167,132.5C 166.221,124.821 167.554,117.487 171,110.5C 178.436,99.9553 187.936,97.7886 199.5,104C 208.937,112.731 210.604,122.564 204.5,133.5 Z"/></g>
<g><path style="opacity:1" fill="#f4f1ef" d="M 179.5,109.5 C 187.508,109.365 189.675,113.032 186,120.5C 180.688,124.931 177.188,123.764 175.5,117C 175.927,113.977 177.261,111.477 179.5,109.5 Z"/></g>
<g><path style="opacity:1" fill="#f7f4f4" d="M 201.5,136.5 C 195.937,144.611 188.27,147.778 178.5,146C 181.036,145.814 183.369,145.314 185.5,144.5C 191.767,142.566 196.1,138.566 198.5,132.5C 200.047,130.193 200.713,127.527 200.5,124.5C 200.495,122.304 200.162,120.304 199.5,118.5C 199.107,116.716 198.441,115.05 197.5,113.5C 197.272,111.645 197.939,110.812 199.5,111C 203.978,119.191 204.645,127.691 201.5,136.5 Z"/></g>
<g><path style="opacity:0.999" fill="#d8dfdf" d="M 58.5,63.5 C 58.5858,64.4959 58.2524,65.3292 57.5,66C 59.7443,68.3486 60.9109,67.8486 61,64.5C 61.3879,65.428 62.0546,66.0946 63,66.5C 65.5847,66.4453 68.0847,66.4453 70.5,66.5C 47.2722,89.2918 33.9389,116.958 30.5,149.5C 29.8334,157.676 29.1667,166.01 28.5,174.5C 26.5,175.167 24.5,175.833 22.5,176.5C 21.1993,174.556 20.1993,172.556 19.5,170.5C 16.9155,128.901 29.9155,93.2342 58.5,63.5 Z"/></g>
<g><path style="opacity:1" fill="#e8dede" d="M 189.5,117.5 C 190.5,117.5 191.5,117.5 192.5,117.5C 192.5,118.833 192.5,120.167 192.5,121.5C 191.5,121.5 190.5,121.5 189.5,121.5C 189.5,120.167 189.5,118.833 189.5,117.5 Z"/></g>
<g><path style="opacity:1" fill="#e5ddde" d="M 117.5,135.5 C 116.054,136.613 114.387,136.78 112.5,136C 109.308,133.972 106.641,131.472 104.5,128.5C 103.728,124.548 103.395,120.548 103.5,116.5C 104.022,113.432 104.855,110.432 106,107.5C 109.792,101.603 115.126,97.9362 122,96.5C 124.321,96.9095 126.487,97.7428 128.5,99C 118.772,98.4465 111.938,102.613 108,111.5C 106.027,119.894 107.861,127.228 113.5,133.5C 114.86,134.18 116.193,134.847 117.5,135.5 Z"/></g>
<g><path style="opacity:1" fill="#a58486" d="M 103.5,116.5 C 103.395,120.548 103.728,124.548 104.5,128.5C 103.055,126.429 102.055,124.096 101.5,121.5C 102.167,119.833 102.833,118.167 103.5,116.5 Z"/></g>
<g><path style="opacity:1" fill="#6b2e2f" d="M 117.5,135.5 C 116.193,134.847 114.86,134.18 113.5,133.5C 107.861,127.228 106.027,119.894 108,111.5C 111.938,102.613 118.772,98.4465 128.5,99C 126.487,97.7428 124.321,96.9095 122,96.5C 115.126,97.9362 109.792,101.603 106,107.5C 104.855,110.432 104.022,113.432 103.5,116.5C 102.833,118.167 102.167,119.833 101.5,121.5C 100.139,108.714 105.139,99.5469 116.5,94C 126.783,92.2266 133.283,96.3933 136,106.5C 137.56,117.108 134.727,126.274 127.5,134C 124.312,135.316 120.978,135.816 117.5,135.5 Z"/></g>
<g><path style="opacity:1" fill="#e3c187" d="M 124.5,118.5 C 126.176,119.183 126.843,120.517 126.5,122.5C 128.346,122.222 129.68,122.889 130.5,124.5C 128.367,126.091 126.701,128.091 125.5,130.5C 124.912,128.089 123.745,126.089 122,124.5C 123.309,122.92 124.142,120.92 124.5,118.5 Z"/></g>
<g><path style="opacity:1" fill="#e4dbdb" d="M 113.5,114.5 C 114.586,114.62 115.253,115.287 115.5,116.5C 115.167,117.167 114.833,117.833 114.5,118.5C 113.571,117.311 113.238,115.978 113.5,114.5 Z"/></g>
<g><path style="opacity:1" fill="#f5f3f2" d="M 128.5,110.5 C 129.586,110.62 130.253,111.287 130.5,112.5C 130.167,113.167 129.833,113.833 129.5,114.5C 128.571,113.311 128.238,111.978 128.5,110.5 Z"/></g>
<g><path style="opacity:1" fill="#f3f0ed" d="M 121.5,101.5 C 125.305,101.643 126.971,103.643 126.5,107.5C 126.219,113.963 123.053,116.296 117,114.5C 116.333,111.833 116.333,109.167 117,106.5C 118.707,104.963 120.207,103.296 121.5,101.5 Z"/></g>
<g><path style="opacity:1" fill="#9e8989" d="M 199.5,118.5 C 200.162,120.304 200.495,122.304 200.5,124.5C 200.713,127.527 200.047,130.193 198.5,132.5C 199.314,127.881 199.647,123.214 199.5,118.5 Z"/></g>
<g><path style="opacity:1" fill="#e5c68d" d="M 114.5,123.5 C 115.479,124.765 116.479,126.099 117.5,127.5C 116.5,128.5 115.5,129.5 114.5,130.5C 113.5,129.167 112.5,127.833 111.5,126.5C 112.77,125.712 113.77,124.712 114.5,123.5 Z"/></g>
<g><path style="opacity:1" fill="#e4d9d9" d="M 173.5,123.5 C 174.586,123.62 175.253,124.287 175.5,125.5C 175.167,126.167 174.833,126.833 174.5,127.5C 173.571,126.311 173.238,124.978 173.5,123.5 Z"/></g>
<g><path style="opacity:1" fill="#eecc8d" d="M 186.5,126.5 C 188.564,126.762 189.897,127.929 190.5,130C 191.448,130.483 192.448,130.649 193.5,130.5C 193.5,131.5 193.5,132.5 193.5,133.5C 192.448,133.351 191.448,133.517 190.5,134C 189.406,135.78 188.406,137.614 187.5,139.5C 186.781,136.178 185.114,133.512 182.5,131.5C 185.342,130.996 186.675,129.329 186.5,126.5 Z"/></g>
<g><path style="opacity:1" fill="#f8a49f" d="M 123.5,142.5 C 111.5,142.5 99.5,142.5 87.5,142.5C 81.0678,136.508 81.0678,130.675 87.5,125C 95.1521,124.407 101.319,127.24 106,133.5C 107.271,137.166 106.104,139.666 102.5,141C 109.679,141.171 116.679,141.671 123.5,142.5 Z"/></g>
<g><path style="opacity:1" fill="#e2c48d" d="M 119.5,129.5 C 124.016,130.625 124.35,132.292 120.5,134.5C 118.296,133.218 117.962,131.551 119.5,129.5 Z"/></g>
<g><path style="opacity:1" fill="#e7c78e" d="M 174.5,131.5 C 179.02,132.975 179.354,134.975 175.5,137.5C 174.5,136.5 173.5,135.5 172.5,134.5C 173.193,133.482 173.859,132.482 174.5,131.5 Z"/></g>
<g><path style="opacity:1" fill="#e4c58c" d="M 179.5,136.5 C 184.602,137.508 185.269,139.508 181.5,142.5C 180.3,141.469 178.966,140.635 177.5,140C 178.823,139.184 179.489,138.017 179.5,136.5 Z"/></g>
<g><path style="opacity:1" fill="#7c4040" d="M 135.5,134.5 C 138.232,136.035 140.898,137.869 143.5,140C 149.312,142.309 154.646,141.476 159.5,137.5C 160.188,139.718 159.188,141.218 156.5,142C 148.661,144.826 141.827,143.326 136,137.5C 135.517,136.552 135.351,135.552 135.5,134.5 Z"/></g>
<g><path style="opacity:1" fill="#ffa6a1" d="M 193.5,157.5 C 189.087,152.631 189.753,148.464 195.5,145C 203.46,139.915 210.96,140.415 218,146.5C 219.419,152.44 217.252,156.607 211.5,159C 205.324,159.964 199.324,159.464 193.5,157.5 Z"/></g>
<g><path style="opacity:1" fill="#894847" d="M 87.5,142.5 C 99.5,142.5 111.5,142.5 123.5,142.5C 128.937,146.102 133.604,150.602 137.5,156C 156.21,156.192 174.877,156.692 193.5,157.5C 195.002,159.175 196.335,161.008 197.5,163C 200.833,163.333 204.167,163.667 207.5,164C 208.833,165 208.833,166 207.5,167C 200.952,166.916 194.619,167.916 188.5,170C 176.103,176.431 173.436,185.597 180.5,197.5C 190.239,206.478 201.739,209.478 215,206.5C 216.376,206.684 217.209,207.351 217.5,208.5C 216.697,209.423 216.53,210.423 217,211.5C 219.068,213.396 220.901,215.396 222.5,217.5C 222.5,218.167 222.5,218.833 222.5,219.5C 220.824,220.183 220.157,221.517 220.5,223.5C 217.347,214.024 210.68,210.19 200.5,212C 195.288,213.198 191.122,216.031 188,220.5C 185.854,224.475 184.02,228.475 182.5,232.5C 181.022,233.448 180.022,234.781 179.5,236.5C 179.5,235.167 179.5,233.833 179.5,232.5C 180.595,227.64 182.262,222.973 184.5,218.5C 188.38,215.973 191.046,212.64 192.5,208.5C 189.673,208.416 187.006,207.75 184.5,206.5C 179.37,202.188 175.537,196.854 173,190.5C 172.382,183.297 174.382,176.964 179,171.5C 183.601,168.449 188.435,165.782 193.5,163.5C 193.291,162.914 192.957,162.414 192.5,162C 173.923,160.692 155.257,160.025 136.5,160C 132.5,154.667 127.833,150 122.5,146C 110.833,145.333 99.1667,145.333 87.5,146C 86.4214,146.956 85.2547,147.789 84,148.5C 83.5,180.498 83.3334,212.498 83.5,244.5C 83.4483,247.952 85.115,250.119 88.5,251C 119.498,251.5 150.498,251.667 181.5,251.5C 180.282,252.161 178.949,252.828 177.5,253.5C 158.004,254.167 138.671,254.833 119.5,255.5C 108.495,255.667 97.495,255.5 86.5,255C 82.4709,252.978 79.9709,249.812 79,245.5C 66.26,233.944 60.5934,219.611 62,202.5C 65.3014,195.364 70.8014,191.031 78.5,189.5C 78.8293,183.463 78.4959,177.463 77.5,171.5C 75.0894,170.639 73.0894,169.306 71.5,167.5C 71.0195,164.206 69.6861,161.372 67.5,159C 68.2524,158.329 68.5858,157.496 68.5,156.5C 70.3628,161.369 73.6961,165.036 78.5,167.5C 79.4656,165.604 79.7989,163.604 79.5,161.5C 79.3343,157.154 79.501,152.821 80,148.5C 81.4802,145.183 83.9802,143.183 87.5,142.5 Z"/></g>
<g><path style="opacity:1" fill="#fedf97" d="M 184.5,206.5 C 184.5,210.5 184.5,214.5 184.5,218.5C 182.262,222.973 180.595,227.64 179.5,232.5C 178.676,236.312 178.176,240.312 178,244.5C 177.167,245.333 176.333,246.167 175.5,247C 146.167,247.667 116.833,247.667 87.5,247C 86.0161,246.338 84.6828,245.504 83.5,244.5C 83.3334,212.498 83.5,180.498 84,148.5C 85.2547,147.789 86.4214,146.956 87.5,146C 99.1667,145.333 110.833,145.333 122.5,146C 127.833,150 132.5,154.667 136.5,160C 155.257,160.025 173.923,160.692 192.5,162C 192.957,162.414 193.291,162.914 193.5,163.5C 188.435,165.782 183.601,168.449 179,171.5C 174.382,176.964 172.382,183.297 173,190.5C 175.537,196.854 179.37,202.188 184.5,206.5 Z"/></g>
<g><path style="opacity:1" fill="#ced7d7" d="M 288.5,105.5 C 297.824,126.465 301.49,148.465 299.5,171.5C 298.691,173.292 298.191,175.292 298,177.5C 297.16,174.536 296.16,174.203 295,176.5C 293.301,175.594 291.467,175.261 289.5,175.5C 289.5,171.167 289.5,166.833 289.5,162.5C 288.962,144.603 285.629,127.27 279.5,110.5C 282.936,110.963 286.269,110.963 289.5,110.5C 288.691,108.929 288.357,107.262 288.5,105.5 Z"/></g>
<g><path style="opacity:1" fill="#f6a8a5" d="M 67.5,152.5 C 70.953,156.294 74.953,159.294 79.5,161.5C 79.7989,163.604 79.4656,165.604 78.5,167.5C 73.6961,165.036 70.3628,161.369 68.5,156.5C 68.1667,155.167 67.8333,153.833 67.5,152.5 Z"/></g>
<g><path style="opacity:1" fill="#f9a6a3" d="M 239.5,110.5 C 240.6,112.277 241.434,114.277 242,116.5C 243.998,128.699 243.831,140.866 241.5,153C 245.081,160.906 247.915,169.073 250,177.5C 251.474,186.454 251.807,195.454 251,204.5C 248.223,224.407 238.223,239.407 221,249.5C 222.58,243.471 223.747,237.305 224.5,231C 224.648,226.975 223.981,223.141 222.5,219.5C 222.5,218.833 222.5,218.167 222.5,217.5C 230.196,218.568 235.696,215.568 239,208.5C 245.642,189.849 244.476,171.682 235.5,154C 241.774,139.963 243.108,125.463 239.5,110.5 Z"/></g>
<g><path style="opacity:1" fill="#fff5dc" d="M 116.5,194.5 C 130.504,194.333 144.504,194.5 158.5,195C 162.5,198.667 162.5,202.333 158.5,206C 144.5,206.667 130.5,206.667 116.5,206C 112.542,202.215 112.542,198.382 116.5,194.5 Z"/></g>
<g><path style="opacity:1" fill="#f9aba8" d="M 180.5,197.5 C 186.077,199.48 191.744,201.314 197.5,203C 205.934,203.785 214.267,203.285 222.5,201.5C 222.536,205.108 220.869,207.441 217.5,208.5C 217.209,207.351 216.376,206.684 215,206.5C 201.739,209.478 190.239,206.478 180.5,197.5 Z"/></g>
<g><path style="opacity:1" fill="#f3bc6c" d="M 184.5,206.5 C 187.006,207.75 189.673,208.416 192.5,208.5C 191.046,212.64 188.38,215.973 184.5,218.5C 184.5,214.5 184.5,210.5 184.5,206.5 Z"/></g>
<g><path style="opacity:1" fill="#fc8d88" d="M 72.5,194.5 C 74.8333,194.5 77.1667,194.5 79.5,194.5C 79.8327,209.515 79.4993,224.515 78.5,239.5C 68.3678,229.569 64.2012,217.569 66,203.5C 67.6107,200.062 69.7774,197.062 72.5,194.5 Z"/></g>
<g><path style="opacity:1" fill="#fd8d88" d="M 220.5,223.5 C 221.742,229.917 221.242,236.251 219,242.5C 214.13,255.383 204.963,260.55 191.5,258C 183.313,251.436 180.313,242.936 182.5,232.5C 184.02,228.475 185.854,224.475 188,220.5C 191.122,216.031 195.288,213.198 200.5,212C 210.68,210.19 217.347,214.024 220.5,223.5 Z"/></g>
<g><path style="opacity:1" fill="#c1c6c7" d="M 30.5,149.5 C 28.3286,185.759 38.662,217.759 61.5,245.5C 60.9232,247.652 59.7565,247.985 58,246.5C 56.6914,248.891 55.6914,248.891 55,246.5C 52.9749,247.26 51.1415,247.594 49.5,247.5C 30.9486,225.362 20.9486,199.695 19.5,170.5C 20.1993,172.556 21.1993,174.556 22.5,176.5C 24.5,175.833 26.5,175.167 28.5,174.5C 29.1667,166.01 29.8334,157.676 30.5,149.5 Z"/></g>
<g><path style="opacity:0.999" fill="#c1c6c7" d="M 289.5,162.5 C 289.5,166.833 289.5,171.167 289.5,175.5C 291.467,175.261 293.301,175.594 295,176.5C 296.16,174.203 297.16,174.536 298,177.5C 298.191,175.292 298.691,173.292 299.5,171.5C 297.375,200.896 287.042,226.896 268.5,249.5C 267.849,248.909 267.182,248.243 266.5,247.5C 265.914,247.709 265.414,248.043 265,248.5C 262.931,247.736 260.764,247.236 258.5,247C 259.582,245.67 260.249,244.17 260.5,242.5C 278.726,218.927 288.392,192.26 289.5,162.5 Z"/></g>
<g><path style="opacity:1" fill="#fdc36c" d="M 179.5,232.5 C 179.5,233.833 179.5,235.167 179.5,236.5C 179.015,241.729 179.682,246.729 181.5,251.5C 150.498,251.667 119.498,251.5 88.5,251C 85.115,250.119 83.4483,247.952 83.5,244.5C 84.6828,245.504 86.0161,246.338 87.5,247C 116.833,247.667 146.167,247.667 175.5,247C 176.333,246.167 177.167,245.333 178,244.5C 178.176,240.312 178.676,236.312 179.5,232.5 Z"/></g>
<g><path style="opacity:1" fill="#babbbb" d="M 260.5,242.5 C 260.249,244.17 259.582,245.67 258.5,247C 260.764,247.236 262.931,247.736 265,248.5C 265.414,248.043 265.914,247.709 266.5,247.5C 267.182,248.243 267.849,248.909 268.5,249.5C 235.464,288.807 193.13,305.974 141.5,301C 106.752,295.878 77.5856,280.378 54,254.5C 52.2502,252.266 50.7502,249.932 49.5,247.5C 51.1415,247.594 52.9749,247.26 55,246.5C 55.6914,248.891 56.6914,248.891 58,246.5C 59.7565,247.985 60.9232,247.652 61.5,245.5C 74.4315,260.58 90.0982,272.08 108.5,280C 167.699,301.202 218.365,288.702 260.5,242.5 Z"/></g>
</svg>
